<mxfile host="65bd71144e">
    <diagram id="qaqqa7ADO_ZGMZdkeTkV" name="Page-1">
        <mxGraphModel dx="1256" dy="751" grid="1" gridSize="10" guides="1" tooltips="1" connect="1" arrows="1" fold="1" page="1" pageScale="1" pageWidth="850" pageHeight="1100" math="0" shadow="0">
            <root>
                <mxCell id="0"/>
                <mxCell id="1" parent="0"/>
                <mxCell id="3" value="" style="rounded=0;whiteSpace=wrap;html=1;" parent="1" vertex="1">
                    <mxGeometry x="60" y="60" width="1040" height="490" as="geometry"/>
                </mxCell>
                <mxCell id="4" value="" style="rounded=0;whiteSpace=wrap;html=1;fillColor=light-dark(#0054a2, #ededed);" parent="1" vertex="1">
                    <mxGeometry x="60" y="60" width="1040" height="110" as="geometry"/>
                </mxCell>
                <mxCell id="9" value="" style="shape=image;verticalLabelPosition=bottom;labelBackgroundColor=default;verticalAlign=top;aspect=fixed;imageAspect=0;image=data:image/png,iVBORw0KGgoAAAANSUhEUgAAAMwAAADACAMAAAB/Pny7AAABWVBMVEX////uMzQBVKMUQnQJVqMAUqIAUKEATqAAS58AQ5wARp0AV6YASZ7xMjEAOG7x8/jX3us6aa0mVKODfpkAPpr1MSzh6PJhhbrn7vX5+/45YKkzVJ4ALml8nMgAOJjJ0ee1v92Op83A0eSmHifajpU5b7FcebZ8ksNXfbW+P17kMDLsAACrvNgAM5bfOULux8tNb7BcUZKhAADOKi4AH2Kiqr5ojr9sUIi6JCoAJ2UAGWCKmK6dqdD7LyTEx9WVpLyWSXKpRmn96efVpaFGYYcAKZRMUpeDS354TYbYOUn4uralCxr2Zl71VlS8a2js1tNufp7KPVSxQGPyb2z2TkfzfHD1pJv5y8X0jYPVDhPFhX/NlZDDWVSsNDSvREKyV1q6AAjeuLPWVFPvfXzURj7Ob2kqUX7YeYGyfIxGNmRGRm+nna+/j5uBMlqaLU9nRmd5QGUAAFXJtMNtQTPpAAAgAElEQVR4nO2d+1fbyJL4G6M3MpIYW7IEfsjEjxjBOIAhBGMSh0l4JTiPgWxyJ3Nzs8vuzn6/u3f2//9hq1qyJVkPY4Lh7jlbc07G2G2pP13dVdXVbTUhM5SCrlarDkilUnHsoi92Bd8BqZZVXZllFW4npqmAQO1tu7jT1CxZ/OWX9fX1UikHIqJIvtC/4f1SqbS+DuVyLNNsAqNTVQt4GdN8IAiloOtqGRreqDES1B5qLsk8z2WYsGQCMvYJy/KcIEuAV1ovyUzNANWBygoF5d6gTOxFjoMQIiAgARut9xRCv8sCGXKVBAugnGoVoGaLhN3JsXdqGivmAIJjb0+QxJVhUVk5cUFrNrD7zWZoFVAbTY2RRaTI3DFFlIkXJIlnNMN2HPVOgRTQh1FbEGSZZ2fIMI6UyXDQ9TimjTq6GyAdhofGCgKM7QcRFogEpg0DSf1BEtVuti1Z4Ke5O7VTwdqM/hl+PnUfBesg8FbbcAq3JinYbYvlp+pZDMuDN5FYy1cjK6G/yQlDALZUQis+tZ5RQ4xlOLfqb2VD4KfuWqKsNbrdRtmRh03At6u6qqp6Q/LqJFSrUMLQhpdmZUng2Zu1GMtxAlOctrspjlZKVwmLfWmsBCfYXruVreFHLK9V8E29RFXDiEV0H6YzhGGtBrosQbxpVwZNN6tToTAlPrVfczy3BMKGgDkGbtLVaoZK1LZfN7FBe3pdoH+VsF3Nxvroi0xDx6jILAr+xXkurUuw8nqtekOPalZrYjoKy1l1u6Kq5W57KdCgQpeQRo7nRU3XjVHVGMlW0JmXqWrkuqKgYnKjG7C5OtDoxvANTjPqbQsGa0oFGKHUVG+CoxYFIeU6eLslo0xMXYerKV1/qPNtlZjQ/kyGbyi2NCoudQtdBGCxZK5iArJZEf3WEuqgrPLS8DqcVjUVCPospAGrzMX3dpm1J5u2alucMBi5JahbuahpNvaP7qgWsgF/VzRR5niruOM3rNRVmiqWBG3wmq624S6O6F/PhQk0iuhgRbpgQ/h6o2nxcnw1pOYkS+Awka+yXNhtIEvFEnk+V4cGL4w6lIAwpNw1LFmSfOWy0M3aRfhEh4BU7JKGhU0m+Zcch2HEBtZEb8pwSQci82J867JSu5zOIgdHCwP2SZIti5ECl4A+BOObIvPYhM7QpvGae+1C2TGCNl12zLoM2EoDQpNywVrAviwkw2SkBsELVyyekZcqpNIYfSRwmeBglttpZq0aYGE4QZQsw67CQLdHbiPDWyp2Afe1gfUaGi5WKA4dmh4YSqzsKO11rF1ZlGAwsTx+KWCuIpoBGAvaxbRRlfDa75KGJYpBAyrXk3uaqckjFq7E1rtVXaH1U+zRgOWhDxQaLgzXLmB3GA4PdqlR9kwMVMSvbFVvywwi1iVHaQoSXFJfSIZBzWh1E5tJoGC+Yip6xW7LuUDRYmJA4PjdibN0Haax5WKTeih92DosD22mej4DhnMQBk12s1ihPOWRh+cyZahpiZqAtl62eBG/pE2AEVCV3SU2BMNZXZziltv+O1yiamp+c3JMQ0UViBAQmXTwDlsfm6wZC8MLED+BKeuSoF1gGYQR6kjYNYs8m1NRSb6FiINpS22kN/gQTEZo4lgyrNEbTM5OcDcFK9AdObGCMFKGWcfql9gh5DjMaMzwdQPNHgS4XV95GK8gTCaHrsaEt5kc6LbQnADDC2gAy5YYguERxpaCo6aZ0M/UpaANFCiMzPCsCeGHxARg9CFMGz0L431LhtGNY4nli8HK8ZqKf8hd2pFhjlqig9v3mvEwnAX3J8VcDEzQp/PaFDAiL1Ug+lgfvstSGEMeXduPqSACUDDSFsAU+e+yclsFIwuulriNw65X0aLkJmiGkZvQUsryXcIstbum6fziR1I89mU3WGG5LtbCH/8VwGy3MdapMMOgmGk6pm5rUBiGdJkBG4GuznSsoUJd+1peHoNxr06cu4NRymUwvmo3eD28RdXCEEyECEDf8S8tw2BUdJ2Yqs0MCcEAlSs9tQGhSU2tQmHBqOD0Rq2M4mqtW8DYLBCZUpiMQJ1w+c5gwJsjDQkEuXwNR3KXEUUWQn29GLgyX+861bIDMaIUmGjKONGkQSOP02/Wsqx2u94czs5YplguKGbB8e1tzoUBDdGK3plmbIvDyZTif8JyeAulandhzlXeCU08eAggGF6SwtE7y3qxnfs/mC0CljCMZ1imXTcaRRtCoGFxsO0aDimOoz7rLg0Ai7FxI+BOWc/Pm2VbE8ZiQDZ1VhUrYMppYDp0HpzlwOSuQauAEcYdwsgwA8GeW/I/4HjNKNrFHUObLmszgcmfejaNYtcdpmLXvFMYHI7woh2gofNaHuTuUEICY4t1jR0r6XcLw2Xoh2Um3KNmm9ocDjPeagRv/GMwRolG4SbM9h8mockKwWGZa98OhsXYDCcmLF1+ER8oORsSroJz2cDk6oYwLNfUTUWFCJW9cUIVo0wwZxxHB5QvHOe/yflvYlF2qv7KFWGCRcrtwFs3goH5TKWhiblx2xuDgPUTBFlwVzrAJ2qW1ga/WK83XTF2UAz3D3i7Dp9qmgYlLVy74PG7lG4ijZST2xBRtAOj6EbdjLFyEkxbE66Ki0LUP8gcY2ka+r2dYtG2cfG1qlZVOrMbind5/w1cQaxW6SIuLoU2DAP4NIvhBUmW6XJD8n15mMsz08JAsJ+kCVyHlFhKYEP9q9UfXeAyFV1Vy5SsYTTbVgYz60LCKGXYUNBxM5gY4QRJFDmt2Sh2QQOqOoNVR1xpBKxu0WgysgiRAZdJ7B63hcHVU0nWmkW7Ui2rhdmv4btQdqPJSECU3MhTwuCSS05gDHe59H5X6nFlG5CaGUmU4wfwFDAMLiDI2k61qk+3OO+NdKXgiTp8oYRsws2upRTUqmNoUBMu4iJuCoOWI8fsOOpNMMyCoqN5sovFBgziZq1GTW+s1Go1sNcNaj3czRmTb2Aqiuo0uRJML5hbwHC5kmZPWLWmbWbDYK1pDEedBXWabmQ1mseEBp/7LoveFTcyoBddYrSasVMEsMIEk1Ko7jAlaUprBk5EZFKWDEy9TDcFcFIuJ0roLtnxbSZTCN4QXCduq5EZq4YZYT0ZSi1akp+inQwDjbUTlymEQaBXgWJBFoGBOre7FnRj0EISzzSLoKnYvUFmtbk0XDeeBMOzWqxS9Ird5HCbEh/PsOCL+8YysxwVeG+8eKyyWPRp4kLTLscpSd2xOH4yDMe37fjPbRx9YxyB+iwvv3r16smT3d3d4+PXr58/f/7ixYv3j11598578fg9vAufvX59fLy7+wTk1SskjAdDtyCW4pct1CKds6fC8Mkr0zY3DgEEUH+sPFT9PVT5ZKOVzR54kk+SYYFsa2PjBDjfv3DhEMy/9FCEpDWYqpHh02Aygpa8acCme8mGEE+AAJqeAswNa57NZuemkCyKi5efawGYx/VkCJUKQwq2JaTASLWUZUIKs/Bq9zXVAirhNgBpYPR6I6rjJ8vpMLibQEqEESw9mYXCLLza2NiYw9veEUM8lsf0+NVCKgwhznIizHrq8i2F2T2YHcU4U37jySQYYlsJMGaaXkYw90Li4twAxrzlPqd/SJjbyv/BeNU6v804exiYSTXNf+h/nEgTLfAQMPlfJ7X7wSm5nKDRg8so7kPAHFxd5VMrmj/vk366+rIfY3BnCYMrxQuvIreEPkQ+pNLkT+Hbl2tpRdZOST8KczJDGAzNYmCgqhdpNUVacAhpqsl+hCKfxi+dPaERwI/uAJ4CJv8rVvU8RTVUMYScpgAfXEKBiGpcGPkeYbK0qlfxNYWQ5GCNKgbqml87SIiEsm8usMS4au4dJu9VNaqa7MHaQf7j+afLC+/7V5efzlsAF2NCLl3cgzDrzGGW/UrTZl879Wq6trYGoXSgJh8vry6iF+lfXF2GKpzPr619vHI//LQG/P5F8u9mPGaGMNBn5qDVr/qjWmLDfzxYG8H+05eE63xujTSydvDxQ/AiF6eXv77Jrq25PPnHywhz+y3zN4TJf4ppdRTl07BhW5vxNG83RzCX/dgSyoXrQD3NpMfytxSHAZplt67Zp9/iC108Hda0tRpL8/lsdQTzl3gY8uWvs9cMwjBewz/dfBlX5tuqD/N0dfPz+OcmsPglNn+L06/yeXPLhXkPMJnMTJYcHAthPN+3tRpDY75cPRtV1aUJt30fWUaKmXt6dhalwTIjGMygzUQzVQ0TGhvZUU0jNC9/OwtUFcuchXTT/7zp64W2SJQmwJt/gTDMTDRT1VgfJobGHGPBMmdfg6q5GC8ANF/DNEHd5V9gIlCbyZJQtYYwJyNrBe0eovm2OlZVLPN7qKZvt8YLjNGYXwL9MP8cYNhZwXAIk/drGu5E3zbHWUA+BUsoj/5p/PPW6m9Buwgd0b/IAYWpzYKFqHWEeeeHAK2wff55M8qSvQxdImaK1gr3s5d/9S9CNcPNBkY3eIB5HIhnWqF6XMVNjb1ox6M+jc4Dsuchg3ca0F12pjComRd+49JZiC/9X6PB5hzFffnbpju8Ynjz30M3ufJxs3Ov0WfuzAgGNfM8APPG/eClawf6kdkVzoZBK79trq6ubm6Cdi5igmt3VPU/u1oOlMi2jmcHo+wgzGu/xvkP8K4JdYWKosmJmcV/IN++bp6tUtn8etH/HoXBjtj/Atf4emGG1OvCSPZMYEgRYQIZDRjd/YvfaV03v37rk9MozPlb/PjpVuvp09XVs823fxvvZtgR+y9XUXfwMeB88mE2dgHG/ZnTjGCeBDRzeuHW1a3oRczwbrko2My01FYE9+MF6G7Vvcjm5ueLSx+G5jNy6b9eurXQpbNXgY7yF9qiW63WFtZk9W/R4d1yUdzXUN8IzFzrd0934IRRw3/z24rOAEozmZsBDJ3QBJr/KUWhVUKcGJ/ZCr3XGg8AgrqD4Casuzwuz2RyM5nODMPmVhDGr11ry4MJDfHWePgSeO3Oj0O62wrqjk5nMuJMgmYv0lza8GHCDe22+9qkROyort/fZCMXCerOjTPl2bAQtQ0wmXep2UvwLOnpzVHBN+HMRkyJ53STw4xg9DZagPepdcU8a2oidigHYNffpOWf3QCA02YEU8BIk3me1o1oUBANa+IKXhHyKRWmRaMZY0YwhMYzr9OqStNoN1HNAUYx/VZa/nkDAwBxRgEAIQ2AYZ6kpZXdEDgapEVq+obm/T6lXcv1mTNZA0CxMT/zKrk1s15+8yo/YXk9m/fCy5R1eNdn5mbkM4eZs43o/d3NFXOtYY78E9SFbt6IwUD5eD5MyCYWnMu+R2MmzmxvK83PLD+O9o2Pb84/fP90eTqcrPVPLz99/3D+5mNSQY+FKFenl9+hZKQgCLoZlpkVCymg12ReRMP4y6uLaHKy3786HQ9fvscVJP2fTyNWOtt6PlNjRgh1NDHm7G1CnvXzGEz2L/EpavPlRqSBZmzMCNlBzexGenhr8/c4mv4wz+rLX7/G5aiVL9Fw2l2cyc1oNoPiYObs1UkEZvXs95g869uzSB2fnsWkl/ufV2NgHuMGrdKMYmaU6hITawG2YmiQ5WlMwdVx3SjhBPQQ5gUoJrMww436ylImPqCJybPGsdCCm2EaExPQURY3mNmZ5XZ9mqE9jvHb4zQJLFhwdTOE/SWOxdvQIDqzhLEFTANEBg1WMgITy0IXQ0Kq+RyX1Z3LvsMtjbOaM7tSlXDQxM4CtsL2+XN0uu9JazNU8NtfY1jcIcMyMxz/IOho4gPnsdTko8SgK7sVKhi7uyPbwjSTnPy4jzsRA/vZbkx4NpcPJfzJZeL2kvybUMHonhmE2cBeNtshQ39MzyzEhWdzc27C/+LLz7Q5Y9PoQeqLl99od+vHbVXJv0fDzMx0yEB4hoNm4XlMW9IZysWXr5u/ff6Z1jEJhs4TLl7+ZfPs7TclNt8OV6P7mXZmlJkZSZOPt2e4NAEoZ2dgen/7fEH6iXmNNUzI/o4Fz1bffoudymVPcLO5MONehv0M/eb76NLEuYeCmbyzr58vvgeLBF/nAWXVLbh69tvbi2iKeu4APSarzWyWORQlQ/1mxARkW24NWzTPCjj/HKj+r8HURZYWpFldWjCSTIcv4PCXG7P/0aEtoqt5F5NWHuVZado44GcOrkgQe9X/FAtGnesBjcvYGUbMQ1Fl3A7wOpJYaQXrH/oDt3EF85yhgk/jYFAxfHO2HpOKsiPgvSKqaW2F5jlbARi0cwFzEK59KxIqHOAck8nMcF7mi4o/01o4nribecRCNz7eNAWNow8bi2vP2Mm4UqCqWYh1nLGVc/NP+RvDY46ZYe9FMYSU8ZdnC0/S0pEjkGz+wMs/Xa5NyqZ5LO+W6V6Ge1EMjJqizITXnWM58NdX2Y/nH7ytAP3z8zdz+IOsCfnB1jFzyxHTv7o6PT1NyK0kiqrhjoDAzpO4Sr358P3y8jSQWupfXJ1eXn6asNmebmUCxUzrY/pXl9/PP87ls9PC4BP/sKOlNXL2n3+Ov2z/X9Jg3KQsI0/pY/qXHz7SzGj+1ylZ6NPaEuc1Q9n6Pf67X1Ynpv6nzv1dnHuLiuifp5aqRZ84/yJl2GydxSbTXp6tprDMUUuW4afsZNlhH6FbQiaJqahqT1V9n1xEmIXllDVBmOt/jV7oy2pSboDW5T39nenwR7PeXdVJpx/4P5o4+JRSzCyonf3B0fXiUK4HHdpqhSadQD/ZmI7mS0LOxhWwytjJcvhsQ6Lu+7edvz4a7Hd6ST+w/9dRB1lLGP662hlcL25vr+DFfFnc2xuggnSL0uymeJstiPDDF49PK430skFZhCY+EPIabhy87eLKyvb2/NGgE/MYkn8bwtDdPCFlmIreg1ZZebYXovBl77oH5Rz64/OYiNOvHCY6g5f+ls7SwuklQ59nefgs/taLi3vbK9A7wj+u/6nlueO1qyBGQe8dDuZX9lYSOLxLHqF7tkW0zwvPU2nCGx/TWTAhw7D4OO7qs5S7I9He4jwQqd6DPX7695ONLNplOvyRQu05h0fze3sraRierBziRXZoPmDheUrIuRXadH7xt8SCXj6WYTM4V56fXAfod3ugo/1eTyU/Lc4/x9+8nzzqgeAgX9y+EYenGhw2ZlOeROMFmZ4k5wXm8kMWfBiBunLTegDR9iLCgPzxxx9H84sr2xO6VVSuaRiouzTM86QIMttyDYAyXOtM8kv5DcqS4YqYkOndFMYVD+bW4sIQ1aN5nRDYeD7s4vNbN72cNKkZsvBucunwfmHme8SjoXHNwuv4npY9JzSXdrZJk0rkNF6F+RMaKTO84Xrl/5iucj8K8+8ejEeDFjpuOGQ/kf5nmoDCpNK3hDRn/mTXfcDEcNb//+4X5v//PBzU+Lhr6j3jYoHspZdL83JkL+PC//w76l8YqTlMYD4K3WtiTaeBAc8b6cP/OYIZ0TyJm948XR1u9KM4cW7Gi2EYsTm65KP/8jC2tzGSucaXi8N/bgNDgxiw1Ysr++Xe/hjNH+98GKJ7NK9ios5gAi1242M2/3hhnIU8ekdrsDIo9wbPOmAPFgdKBx3CfKxlmAxzBJ5nHi9E7VZ1L/Th3zcCMESpuzTL7yPjO7TFtPU0ApOli0rgX+Ri4IKPDpDFtZhHHTLwYJ6pw9AgXPkIzOLof9fXoNaBQs19h/w0UNSjo+ogXPw/s0EYfBa5+xSXSGgzlhMb37KZn9t1WcJT/kdr0M8gAOyBfwfN7K+suJqBYB3+3YcI+CgNxuuYR/uHnZ66v7dPlF6v0EGYDun8sTgW9v1xkg/BwPSGozF05nXcMlSSZN2dy+AqtXC+/9HBu/nFgdm7Bme+1wGmfYd05vcOiWoCWAc7wyHW2RsMYzCL++Y+vLHdo8+vGxzp8KW9weIi1QzpdcYU8/dWdgyG2JZn1N7dOD+WzdJHsQBLbSzd/+hgbn6+Yw5whNC6g3TmV3Rz3uztwRu9jkoO9wbqYIBzrSgM6bgwoMFrKN6B6xwdAcz+4mHPJMp+qPiL/Nw4DHHasmsGogMnXvIbzxmXxRhfunh0kP37kaoeLbowvU4HKrY4IOqfPf0aVDXYPlKUeahzjxQgsozCoMECmPkVYOgRVEUPx8w+hKb7HaKHetnjGBhSNYSMG6nF+s8Iy8lr6ilZrhhJkINmHh/pAAOGeRvrvg1jZq9H9P/omPswiAZ7f/bI0T45HPR0mLgkwvR6eg+GHjTKItER5now/+cKKVwHyv/XSRwM0Yv0XL2FheOTydsawVO6LHLM48ce5ec2rlVlf3uxo16jNUMDcF0gCvyHFqE3GBTIAGBonxskwpCCegia6eztbZsI89OhosKMIRSUw5CJgyF46IfrPx9PSltmX7hPOePluMeXAUwL3IKignFeoX5m3zzcJz2YNBeQjigABt3scAWMwv5KDIw7ZgZgmLcPTbNzqJICaoZOKntHweJ/z8fDELNquTTLz+fSulq+dcy4njL+4VAIc0xvDF3taHCNZnZwqIK/md83B4ek0yHm0QrCrADMYgwMzPifwZh5BgN/3p2tHC0ODoGCOp75m8DAzWvUDDDMcUra5oBuJcM0zE58fgxhXs9fD8CdLIY9JBhsINn/UyXXiykwnaOjwUqPqAVC1drrYTvEB3nH2UQYYu7QBVxMqR0kzHEO3rsBDCclrSY/ymdbu0mh2PWgsL9yBGMnBQblqIeZMuxTMPlMjneevIs1AJ44Ik12QjgQa6PdH1/RLEziYjLAnDCJt0cXvt1TjhJhBvSRw1SxMKlOvI4rDEzFkmFIVXOPO13YPYngZLNuYpzJsEbykuWjg9ZuJr0Oe9fX4DQX42CAdnvv2fb84o1SAUzm+UYKDCk0MvTxgQtLj8cmoNmRo7QSnqLowmRhFj2hEhjPUy0MIjBTCZNZOP7vtOyvaWu819WCdgBiseMFd65fT1uyMP9tl81MghkyRWOzaWEyvNZNO67TrBos67mcUVfLtt67XYzlGylrfIWqjUek3BAG5UdhMnxOSz2tU7cZz+W88JSD8Yv7+EUm+YmQpuo0GPpw2fuEwYPi2Hox+XxYxdHcyJM5xkAaZpRP3C4mJp65WKg6jTbnPSd3tjDe4gLIsvcIZFaQ6XGq1filBt2QXKv26sXcwdxrd6bPC3asFdOrzk5dY/1nxDPhe94RDKZAn+3hXAhkfhEc0HLgicW8wDNWu1m0q9GlBsWW3K629PrxE9eKSdq4ozQLqmMDh8UIQuhAy5W9FXrPa1xGSc25kvEURTwHJmZwmQfP8lEU9yDwziD8jGqWpedfMpZVa+7Qk759Kr3Gu9GNG1ZmRuG+aRbwUc/FYrNmWUv0CmNHdViDnntmONxTV3sdd5ElNhs+KQOK2vhzfrDfi3kctF6LHm/Cumfk0NMO+Iyl1ZrGDh4TYGuhMxKbtm3jcQe1GgbMsiDQ4xzizmzljWjXVVRAWvzz2XhwApO2RA7sV/ODTi9ysRFM+nmbLMfSo38kScyFj+DA03YlQMCnVU84n4FPXG8GpMH8SrDXQRwWUY071q6P9nvpOz0mwQTk9sduJ8O4RL1DnKx4CQ2i4DRhJPN0gEO3usFhqFPA3F4mwLhE5Q4Ek0fX+Lq3jy8BAWT/MG7h8x8cxiXSe6NXIDd5kv0/LswPSgjmBues/G+BYRktI0p3chDV2PFoDwDDaxWMp9AA/9gxSGyu1oDr+NbvIWBwI6WiVySYf8juKZXU099MMCRgMRZjhCUHhq5u+6csPwyMWQaeSo7t6kV6Sl2ulMvJ/kHsTKjyDCXI4AP7M6xUWi9ZVgnagF8qQ5vgz9rlh4VRGnh8syU4pCtCVUvVcsUxNIZjRTz3lhXxKGmBy2BEIIo5iRXxzFSO0RihUcYjT+D7GckhZlOq0WTIg8IUDLlUIUXRMSnMuptsVTWrrC5xGavbYDjNqAl1w2jYRcdmHNXi+DZRLcmbOWNr6AR0InZJlX9YGKUh5SqkmxvC6KRS0Qtly1JJReY1oluiQ5x177sVRiUWO4SpaHK7QKolm1QsLsPvEJV9WBiidrsmaYg+TPuXX0oyh2dVNyUNai3axMk5ahnmxGWbC8IUBVaqE12z8fHJGWGHVEeHQz4QDIYPCsP7MHa93mbowdu6bHkwjFiSTF37RRSCMDae9Ez0pk26OLycwHnuD2TNKk612pQ5hGEoDEbpDRFgFNJd8mCWWHbZ1Os8HmEbgQHNqJqYM8yCf5rzA40ZI8cKQgZh8HRSgCmXVb2bA5giUQzTg8kgTFPIjMFkZIOokgEDp2EXiCM9pJ9hLadMj87Gs38rFi8KAGMs1Y22ADB8megxMBrHax6MWNJ0MB6MQ91MxT9o+GECTa1Oj+FmuQp0rnK5gTClXEnEMbNs4WbLMIysEiOXaxBVABin4ah4VjKvdVW1XLSCh/PeE4yy4x9IC67cOyW3QTNoTkknOh5KhabZytnjMPiEL73RUGCAyQ4uR5KyBgj8UrvdlkMHS90TDP6GLiqM1a43uo2SO1VV2wjDQ6cagxGaClEUeJeXHTzGquGqA4/VCl6NXbqH32hRUTU5JpbE5AzLcktWzSh2i5ZVNsHV1z2nCdbMIgoekS4bumk6GowOy1pa4hJOE+Zn8yjQOKnKCVMYcOAsTw/IzHAydBuWqzchnGnU8KNmkx4dKUis4KZgYw9CcxtGvKdfz6A4GX7yDJMaBjxClqfTLtZPWE6Y+7C8OPNfaAalqskzO5QWjNs96gVFbVgzwWF5wWrc79GQKFXAuUFnmw5FELTGvXaxoZjVYptLMgXTC8PxMtO0HwSF4qhOQ+PxaNXb52FdEJaTRbaWuhZ3D4KrK01LFAWOvXEiI8yBR8KKkmbYyatw9yjuSY6WVBJlnsvcODlDt2fxkliStQmHTt634K88yvaOJpRK9IBNlgnIqPKjvzlekMRcqcTXikXgmMEpwz8spqkoeGposcYI67+srwNYLodnVmP5M+sAAAAvSURBVFKBF2IOANbXfylxeM6wU8YDW/8BOaJi4rm+jlOpVIAOBV/R87bv/MEY/wOuVM6TmoXh0gAAAABJRU5ErkJggg==;" parent="1" vertex="1">
                    <mxGeometry x="530" y="60" width="87.18" height="82.06" as="geometry"/>
                </mxCell>
                <mxCell id="20" style="edgeStyle=none;html=1;exitX=1;exitY=0.5;exitDx=0;exitDy=0;" parent="1" source="10" target="4" edge="1">
                    <mxGeometry relative="1" as="geometry"/>
                </mxCell>
                <mxCell id="21" style="edgeStyle=none;html=1;" parent="1" source="10" target="4" edge="1">
                    <mxGeometry relative="1" as="geometry"/>
                </mxCell>
                <mxCell id="10" value="&lt;h1&gt;&lt;font style=&quot;font-size: 32px; color: rgb(255, 255, 255);&quot;&gt;&lt;b style=&quot;&quot;&gt;ROSMINI COLLEGE&lt;/b&gt;&lt;/font&gt;&lt;/h1&gt;" style="rounded=0;whiteSpace=wrap;html=1;fillColor=light-dark(#0054a2, #ededed);" parent="1" vertex="1">
                    <mxGeometry x="60" y="60" width="470" height="110" as="geometry"/>
                </mxCell>
                <mxCell id="11" value="&lt;h1&gt;&lt;font style=&quot;font-size: 13px;&quot;&gt;&lt;font style=&quot;color: rgb(255, 0, 0);&quot;&gt;Home&amp;nbsp;&lt;/font&gt;&lt;font style=&quot;color: rgb(255, 255, 255);&quot;&gt; Sports&amp;nbsp; Staff&amp;nbsp; Student Support&amp;nbsp; Learning Areas&amp;nbsp; News&amp;nbsp; Contact Us&lt;/font&gt;&lt;/font&gt;&lt;/h1&gt;" style="rounded=0;whiteSpace=wrap;html=1;strokeColor=light-dark(#0054a2, #ededed);fillColor=light-dark(#0054a2, #ededed);" parent="1" vertex="1">
                    <mxGeometry x="630" y="60" width="470" height="110" as="geometry"/>
                </mxCell>
                <mxCell id="12" value="&lt;font style=&quot;font-size: 17px;&quot;&gt;&quot;Charity Fufills The Law&quot;&lt;/font&gt;" style="rounded=0;whiteSpace=wrap;html=1;" parent="1" vertex="1">
                    <mxGeometry x="60" y="140" width="1040" height="30" as="geometry"/>
                </mxCell>
                <mxCell id="13" value="Navbar&lt;div&gt;&lt;br&gt;&lt;/div&gt;" style="whiteSpace=wrap;html=1;rounded=1;arcSize=50;align=center;verticalAlign=middle;strokeWidth=1;autosize=1;spacing=4;treeFolding=1;treeMoving=1;newEdgeStyle={&quot;edgeStyle&quot;:&quot;entityRelationEdgeStyle&quot;,&quot;startArrow&quot;:&quot;none&quot;,&quot;endArrow&quot;:&quot;none&quot;,&quot;segment&quot;:10,&quot;curved&quot;:1,&quot;sourcePerimeterSpacing&quot;:0,&quot;targetPerimeterSpacing&quot;:0};" parent="1" vertex="1">
                    <mxGeometry x="1160" y="68" width="80" height="50" as="geometry"/>
                </mxCell>
                <mxCell id="14" value="" style="edgeStyle=entityRelationEdgeStyle;startArrow=none;endArrow=none;segment=10;curved=1;sourcePerimeterSpacing=0;targetPerimeterSpacing=0;" parent="1" target="13" edge="1">
                    <mxGeometry relative="1" as="geometry">
                        <mxPoint x="1120" y="120" as="sourcePoint"/>
                    </mxGeometry>
                </mxCell>
                <mxCell id="15" value="" style="rounded=0;whiteSpace=wrap;html=1;" parent="1" vertex="1">
                    <mxGeometry x="60" y="170" width="1040" height="230" as="geometry"/>
                </mxCell>
                <mxCell id="16" value="" style="endArrow=none;html=1;" parent="1" source="15" edge="1">
                    <mxGeometry width="50" height="50" relative="1" as="geometry">
                        <mxPoint x="1050" y="220" as="sourcePoint"/>
                        <mxPoint x="1100" y="170" as="targetPoint"/>
                    </mxGeometry>
                </mxCell>
                <mxCell id="17" value="" style="endArrow=none;html=1;exitX=0;exitY=1;exitDx=0;exitDy=0;" parent="1" source="15" edge="1">
                    <mxGeometry width="50" height="50" relative="1" as="geometry">
                        <mxPoint x="1050" y="220" as="sourcePoint"/>
                        <mxPoint x="1100" y="170" as="targetPoint"/>
                    </mxGeometry>
                </mxCell>
                <mxCell id="18" value="" style="endArrow=none;html=1;exitX=0;exitY=0;exitDx=0;exitDy=0;entryX=0.998;entryY=0.692;entryDx=0;entryDy=0;entryPerimeter=0;" parent="1" source="15" target="3" edge="1">
                    <mxGeometry width="50" height="50" relative="1" as="geometry">
                        <mxPoint x="360" y="290" as="sourcePoint"/>
                        <mxPoint x="410" y="240" as="targetPoint"/>
                    </mxGeometry>
                </mxCell>
                <mxCell id="19" value="&lt;div&gt;Carousel&lt;/div&gt;" style="whiteSpace=wrap;html=1;rounded=1;arcSize=50;align=center;verticalAlign=middle;strokeWidth=1;autosize=1;spacing=4;treeFolding=1;treeMoving=1;newEdgeStyle={&quot;edgeStyle&quot;:&quot;entityRelationEdgeStyle&quot;,&quot;startArrow&quot;:&quot;none&quot;,&quot;endArrow&quot;:&quot;none&quot;,&quot;segment&quot;:10,&quot;curved&quot;:1,&quot;sourcePerimeterSpacing&quot;:0,&quot;targetPerimeterSpacing&quot;:0};" parent="1" vertex="1">
                    <mxGeometry x="1120" y="240" width="90" height="30" as="geometry"/>
                </mxCell>
                <mxCell id="25" value="" style="rounded=0;whiteSpace=wrap;html=1;fillColor=#0054A2;" parent="1" vertex="1">
                    <mxGeometry x="60" y="468" width="1040" height="82" as="geometry"/>
                </mxCell>
                <mxCell id="26" value="&lt;div&gt;&lt;font style=&quot;color: rgb(255, 255, 255);&quot;&gt;Contact Us&amp;nbsp;&amp;nbsp;&lt;/font&gt;&lt;/div&gt;&lt;div&gt;&lt;span style=&quot;color: rgb(255, 255, 255); background-color: transparent;&quot;&gt;36 Dominion Street&amp;nbsp;&amp;nbsp;&lt;/span&gt;&lt;span style=&quot;color: rgb(255, 255, 255); background-color: transparent;&quot;&gt;Takapuna&amp;nbsp;&amp;nbsp;&lt;/span&gt;&lt;span style=&quot;color: rgb(255, 255, 255); background-color: transparent;&quot;&gt;Auckland, 0622&lt;/span&gt;&lt;/div&gt;&lt;div&gt;&lt;font style=&quot;color: rgb(255, 255, 255);&quot;&gt;Phone: +64 9 489 5417&lt;/font&gt;&lt;/div&gt;&lt;div&gt;&lt;font style=&quot;color: rgb(255, 255, 255);&quot;&gt;admin@rosmini.school.nz&lt;/font&gt;&lt;/div&gt;" style="rounded=0;whiteSpace=wrap;html=1;fillColor=#0054A2;" parent="1" vertex="1">
                    <mxGeometry x="60" y="468" width="350" height="82" as="geometry"/>
                </mxCell>
                <mxCell id="33" value="&lt;font style=&quot;font-size: 16px; color: rgb(255, 51, 51);&quot;&gt;Home&amp;nbsp;&lt;/font&gt;&lt;font style=&quot;color: rgb(255, 255, 255); font-size: 16px;&quot;&gt; &amp;nbsp;Sport&amp;nbsp; &amp;nbsp;Student Support&lt;/font&gt;" style="rounded=0;whiteSpace=wrap;html=1;fillColor=none;" parent="1" vertex="1">
                    <mxGeometry x="410" y="468" width="350" height="82" as="geometry"/>
                </mxCell>
                <mxCell id="34" value="&lt;font style=&quot;font-size: 16px; color: rgb(255, 255, 255);&quot;&gt;Staff&amp;nbsp; &amp;nbsp;Learning Areas&amp;nbsp; &amp;nbsp;News&amp;nbsp; &amp;nbsp;Contact Us&amp;nbsp;&amp;nbsp;&lt;/font&gt;" style="rounded=0;whiteSpace=wrap;html=1;fillColor=#0054A2;" parent="1" vertex="1">
                    <mxGeometry x="750" y="468" width="350" height="82" as="geometry"/>
                </mxCell>
                <mxCell id="35" value="Section 1&amp;nbsp;&lt;div&gt;&lt;br&gt;&lt;/div&gt;" style="ellipse;shape=cloud;whiteSpace=wrap;html=1;" parent="1" vertex="1">
                    <mxGeometry x="150" y="630" width="120" height="80" as="geometry"/>
                </mxCell>
                <mxCell id="36" value="" style="endArrow=classic;startArrow=classic;html=1;exitX=0.625;exitY=0.2;exitDx=0;exitDy=0;exitPerimeter=0;entryX=0.5;entryY=1;entryDx=0;entryDy=0;" parent="1" source="35" target="26" edge="1">
                    <mxGeometry width="50" height="50" relative="1" as="geometry">
                        <mxPoint x="210" y="620" as="sourcePoint"/>
                        <mxPoint x="280" y="560" as="targetPoint"/>
                    </mxGeometry>
                </mxCell>
                <mxCell id="37" value="Section 2&amp;nbsp;&lt;div&gt;&lt;br&gt;&lt;/div&gt;" style="ellipse;shape=cloud;whiteSpace=wrap;html=1;" parent="1" vertex="1">
                    <mxGeometry x="510" y="630" width="120" height="80" as="geometry"/>
                </mxCell>
                <mxCell id="38" value="Section 3&lt;div&gt;&lt;div&gt;&lt;br&gt;&lt;/div&gt;&lt;/div&gt;" style="ellipse;shape=cloud;whiteSpace=wrap;html=1;" parent="1" vertex="1">
                    <mxGeometry x="860" y="630" width="120" height="80" as="geometry"/>
                </mxCell>
                <mxCell id="39" value="" style="endArrow=classic;startArrow=classic;html=1;exitX=0.625;exitY=0.2;exitDx=0;exitDy=0;exitPerimeter=0;entryX=0.5;entryY=1;entryDx=0;entryDy=0;" parent="1" edge="1">
                    <mxGeometry width="50" height="50" relative="1" as="geometry">
                        <mxPoint x="575" y="646" as="sourcePoint"/>
                        <mxPoint x="585" y="550" as="targetPoint"/>
                    </mxGeometry>
                </mxCell>
                <mxCell id="40" value="" style="endArrow=classic;startArrow=classic;html=1;exitX=0.625;exitY=0.2;exitDx=0;exitDy=0;exitPerimeter=0;entryX=0.5;entryY=1;entryDx=0;entryDy=0;" parent="1" edge="1">
                    <mxGeometry width="50" height="50" relative="1" as="geometry">
                        <mxPoint x="930" y="646" as="sourcePoint"/>
                        <mxPoint x="940" y="550" as="targetPoint"/>
                        <Array as="points">
                            <mxPoint x="935" y="600"/>
                        </Array>
                    </mxGeometry>
                </mxCell>
                <mxCell id="41" value="" style="rounded=0;whiteSpace=wrap;html=1;" parent="1" vertex="1">
                    <mxGeometry x="1810" y="60" width="1040" height="490" as="geometry"/>
                </mxCell>
                <mxCell id="42" value="Text" style="text;html=1;align=center;verticalAlign=middle;resizable=0;points=[];autosize=1;strokeColor=none;fillColor=none;" parent="1" vertex="1">
                    <mxGeometry x="575" y="108" width="50" height="30" as="geometry"/>
                </mxCell>
                <mxCell id="47" value="&lt;h1&gt;&lt;font style=&quot;font-size: 13px;&quot;&gt;&lt;font style=&quot;color: rgb(255, 255, 255);&quot;&gt;Home&lt;/font&gt;&lt;font style=&quot;color: rgb(255, 0, 0);&quot;&gt;&amp;nbsp;&lt;/font&gt;&lt;font style=&quot;color: rgb(255, 255, 255);&quot;&gt; &lt;/font&gt;&lt;font style=&quot;color: rgb(255, 51, 51);&quot;&gt;Sports&amp;nbsp;&lt;/font&gt;&lt;font style=&quot;color: rgb(255, 255, 255);&quot;&gt; Staff&amp;nbsp; Student Support&amp;nbsp; Learning Areas&amp;nbsp; News&amp;nbsp; Contact Us&lt;/font&gt;&lt;/font&gt;&lt;/h1&gt;" style="rounded=0;whiteSpace=wrap;html=1;strokeColor=light-dark(#0054a2, #ededed);fillColor=light-dark(#0054a2, #ededed);" parent="1" vertex="1">
                    <mxGeometry x="2380" y="60" width="470" height="110" as="geometry"/>
                </mxCell>
                <mxCell id="48" value="&lt;h1&gt;&lt;font style=&quot;font-size: 32px; color: rgb(255, 255, 255);&quot;&gt;&lt;b style=&quot;&quot;&gt;ROSMINI COLLEGE&lt;/b&gt;&lt;/font&gt;&lt;/h1&gt;" style="rounded=0;whiteSpace=wrap;html=1;fillColor=light-dark(#0054a2, #ededed);" parent="1" vertex="1">
                    <mxGeometry x="1810" y="60" width="470" height="110" as="geometry"/>
                </mxCell>
                <mxCell id="49" value="" style="shape=image;verticalLabelPosition=bottom;labelBackgroundColor=default;verticalAlign=top;aspect=fixed;imageAspect=0;image=data:image/png,iVBORw0KGgoAAAANSUhEUgAAAMwAAADACAMAAAB/Pny7AAABWVBMVEX////uMzQBVKMUQnQJVqMAUqIAUKEATqAAS58AQ5wARp0AV6YASZ7xMjEAOG7x8/jX3us6aa0mVKODfpkAPpr1MSzh6PJhhbrn7vX5+/45YKkzVJ4ALml8nMgAOJjJ0ee1v92Op83A0eSmHifajpU5b7FcebZ8ksNXfbW+P17kMDLsAACrvNgAM5bfOULux8tNb7BcUZKhAADOKi4AH2Kiqr5ojr9sUIi6JCoAJ2UAGWCKmK6dqdD7LyTEx9WVpLyWSXKpRmn96efVpaFGYYcAKZRMUpeDS354TYbYOUn4uralCxr2Zl71VlS8a2js1tNufp7KPVSxQGPyb2z2TkfzfHD1pJv5y8X0jYPVDhPFhX/NlZDDWVSsNDSvREKyV1q6AAjeuLPWVFPvfXzURj7Ob2kqUX7YeYGyfIxGNmRGRm+nna+/j5uBMlqaLU9nRmd5QGUAAFXJtMNtQTPpAAAgAElEQVR4nO2d+1fbyJL4G6M3MpIYW7IEfsjEjxjBOIAhBGMSh0l4JTiPgWxyJ3Nzs8vuzn6/u3f2//9hq1qyJVkPY4Lh7jlbc07G2G2pP13dVdXVbTUhM5SCrlarDkilUnHsoi92Bd8BqZZVXZllFW4npqmAQO1tu7jT1CxZ/OWX9fX1UikHIqJIvtC/4f1SqbS+DuVyLNNsAqNTVQt4GdN8IAiloOtqGRreqDES1B5qLsk8z2WYsGQCMvYJy/KcIEuAV1ovyUzNANWBygoF5d6gTOxFjoMQIiAgARut9xRCv8sCGXKVBAugnGoVoGaLhN3JsXdqGivmAIJjb0+QxJVhUVk5cUFrNrD7zWZoFVAbTY2RRaTI3DFFlIkXJIlnNMN2HPVOgRTQh1FbEGSZZ2fIMI6UyXDQ9TimjTq6GyAdhofGCgKM7QcRFogEpg0DSf1BEtVuti1Z4Ke5O7VTwdqM/hl+PnUfBesg8FbbcAq3JinYbYvlp+pZDMuDN5FYy1cjK6G/yQlDALZUQis+tZ5RQ4xlOLfqb2VD4KfuWqKsNbrdRtmRh03At6u6qqp6Q/LqJFSrUMLQhpdmZUng2Zu1GMtxAlOctrspjlZKVwmLfWmsBCfYXruVreFHLK9V8E29RFXDiEV0H6YzhGGtBrosQbxpVwZNN6tToTAlPrVfczy3BMKGgDkGbtLVaoZK1LZfN7FBe3pdoH+VsF3Nxvroi0xDx6jILAr+xXkurUuw8nqtekOPalZrYjoKy1l1u6Kq5W57KdCgQpeQRo7nRU3XjVHVGMlW0JmXqWrkuqKgYnKjG7C5OtDoxvANTjPqbQsGa0oFGKHUVG+CoxYFIeU6eLslo0xMXYerKV1/qPNtlZjQ/kyGbyi2NCoudQtdBGCxZK5iArJZEf3WEuqgrPLS8DqcVjUVCPospAGrzMX3dpm1J5u2alucMBi5JahbuahpNvaP7qgWsgF/VzRR5niruOM3rNRVmiqWBG3wmq624S6O6F/PhQk0iuhgRbpgQ/h6o2nxcnw1pOYkS+Awka+yXNhtIEvFEnk+V4cGL4w6lIAwpNw1LFmSfOWy0M3aRfhEh4BU7JKGhU0m+Zcch2HEBtZEb8pwSQci82J867JSu5zOIgdHCwP2SZIti5ECl4A+BOObIvPYhM7QpvGae+1C2TGCNl12zLoM2EoDQpNywVrAviwkw2SkBsELVyyekZcqpNIYfSRwmeBglttpZq0aYGE4QZQsw67CQLdHbiPDWyp2Afe1gfUaGi5WKA4dmh4YSqzsKO11rF1ZlGAwsTx+KWCuIpoBGAvaxbRRlfDa75KGJYpBAyrXk3uaqckjFq7E1rtVXaH1U+zRgOWhDxQaLgzXLmB3GA4PdqlR9kwMVMSvbFVvywwi1iVHaQoSXFJfSIZBzWh1E5tJoGC+Yip6xW7LuUDRYmJA4PjdibN0Haax5WKTeih92DosD22mej4DhnMQBk12s1ihPOWRh+cyZahpiZqAtl62eBG/pE2AEVCV3SU2BMNZXZziltv+O1yiamp+c3JMQ0UViBAQmXTwDlsfm6wZC8MLED+BKeuSoF1gGYQR6kjYNYs8m1NRSb6FiINpS22kN/gQTEZo4lgyrNEbTM5OcDcFK9AdObGCMFKGWcfql9gh5DjMaMzwdQPNHgS4XV95GK8gTCaHrsaEt5kc6LbQnADDC2gAy5YYguERxpaCo6aZ0M/UpaANFCiMzPCsCeGHxARg9CFMGz0L431LhtGNY4nli8HK8ZqKf8hd2pFhjlqig9v3mvEwnAX3J8VcDEzQp/PaFDAiL1Ug+lgfvstSGEMeXduPqSACUDDSFsAU+e+yclsFIwuulriNw65X0aLkJmiGkZvQUsryXcIstbum6fziR1I89mU3WGG5LtbCH/8VwGy3MdapMMOgmGk6pm5rUBiGdJkBG4GuznSsoUJd+1peHoNxr06cu4NRymUwvmo3eD28RdXCEEyECEDf8S8tw2BUdJ2Yqs0MCcEAlSs9tQGhSU2tQmHBqOD0Rq2M4mqtW8DYLBCZUpiMQJ1w+c5gwJsjDQkEuXwNR3KXEUUWQn29GLgyX+861bIDMaIUmGjKONGkQSOP02/Wsqx2u94czs5YplguKGbB8e1tzoUBDdGK3plmbIvDyZTif8JyeAulandhzlXeCU08eAggGF6SwtE7y3qxnfs/mC0CljCMZ1imXTcaRRtCoGFxsO0aDimOoz7rLg0Ai7FxI+BOWc/Pm2VbE8ZiQDZ1VhUrYMppYDp0HpzlwOSuQauAEcYdwsgwA8GeW/I/4HjNKNrFHUObLmszgcmfejaNYtcdpmLXvFMYHI7woh2gofNaHuTuUEICY4t1jR0r6XcLw2Xoh2Um3KNmm9ocDjPeagRv/GMwRolG4SbM9h8mockKwWGZa98OhsXYDCcmLF1+ER8oORsSroJz2cDk6oYwLNfUTUWFCJW9cUIVo0wwZxxHB5QvHOe/yflvYlF2qv7KFWGCRcrtwFs3goH5TKWhiblx2xuDgPUTBFlwVzrAJ2qW1ga/WK83XTF2UAz3D3i7Dp9qmgYlLVy74PG7lG4ijZST2xBRtAOj6EbdjLFyEkxbE66Ki0LUP8gcY2ka+r2dYtG2cfG1qlZVOrMbind5/w1cQaxW6SIuLoU2DAP4NIvhBUmW6XJD8n15mMsz08JAsJ+kCVyHlFhKYEP9q9UfXeAyFV1Vy5SsYTTbVgYz60LCKGXYUNBxM5gY4QRJFDmt2Sh2QQOqOoNVR1xpBKxu0WgysgiRAZdJ7B63hcHVU0nWmkW7Ui2rhdmv4btQdqPJSECU3MhTwuCSS05gDHe59H5X6nFlG5CaGUmU4wfwFDAMLiDI2k61qk+3OO+NdKXgiTp8oYRsws2upRTUqmNoUBMu4iJuCoOWI8fsOOpNMMyCoqN5sovFBgziZq1GTW+s1Go1sNcNaj3czRmTb2Aqiuo0uRJML5hbwHC5kmZPWLWmbWbDYK1pDEedBXWabmQ1mseEBp/7LoveFTcyoBddYrSasVMEsMIEk1Ko7jAlaUprBk5EZFKWDEy9TDcFcFIuJ0roLtnxbSZTCN4QXCduq5EZq4YZYT0ZSi1akp+inQwDjbUTlymEQaBXgWJBFoGBOre7FnRj0EISzzSLoKnYvUFmtbk0XDeeBMOzWqxS9Ird5HCbEh/PsOCL+8YysxwVeG+8eKyyWPRp4kLTLscpSd2xOH4yDMe37fjPbRx9YxyB+iwvv3r16smT3d3d4+PXr58/f/7ixYv3j11598578fg9vAufvX59fLy7+wTk1SskjAdDtyCW4pct1CKds6fC8Mkr0zY3DgEEUH+sPFT9PVT5ZKOVzR54kk+SYYFsa2PjBDjfv3DhEMy/9FCEpDWYqpHh02Aygpa8acCme8mGEE+AAJqeAswNa57NZuemkCyKi5efawGYx/VkCJUKQwq2JaTASLWUZUIKs/Bq9zXVAirhNgBpYPR6I6rjJ8vpMLibQEqEESw9mYXCLLza2NiYw9veEUM8lsf0+NVCKgwhznIizHrq8i2F2T2YHcU4U37jySQYYlsJMGaaXkYw90Li4twAxrzlPqd/SJjbyv/BeNU6v804exiYSTXNf+h/nEgTLfAQMPlfJ7X7wSm5nKDRg8so7kPAHFxd5VMrmj/vk366+rIfY3BnCYMrxQuvIreEPkQ+pNLkT+Hbl2tpRdZOST8KczJDGAzNYmCgqhdpNUVacAhpqsl+hCKfxi+dPaERwI/uAJ4CJv8rVvU8RTVUMYScpgAfXEKBiGpcGPkeYbK0qlfxNYWQ5GCNKgbqml87SIiEsm8usMS4au4dJu9VNaqa7MHaQf7j+afLC+/7V5efzlsAF2NCLl3cgzDrzGGW/UrTZl879Wq6trYGoXSgJh8vry6iF+lfXF2GKpzPr619vHI//LQG/P5F8u9mPGaGMNBn5qDVr/qjWmLDfzxYG8H+05eE63xujTSydvDxQ/AiF6eXv77Jrq25PPnHywhz+y3zN4TJf4ppdRTl07BhW5vxNG83RzCX/dgSyoXrQD3NpMfytxSHAZplt67Zp9/iC108Hda0tRpL8/lsdQTzl3gY8uWvs9cMwjBewz/dfBlX5tuqD/N0dfPz+OcmsPglNn+L06/yeXPLhXkPMJnMTJYcHAthPN+3tRpDY75cPRtV1aUJt30fWUaKmXt6dhalwTIjGMygzUQzVQ0TGhvZUU0jNC9/OwtUFcuchXTT/7zp64W2SJQmwJt/gTDMTDRT1VgfJobGHGPBMmdfg6q5GC8ANF/DNEHd5V9gIlCbyZJQtYYwJyNrBe0eovm2OlZVLPN7qKZvt8YLjNGYXwL9MP8cYNhZwXAIk/drGu5E3zbHWUA+BUsoj/5p/PPW6m9Buwgd0b/IAYWpzYKFqHWEeeeHAK2wff55M8qSvQxdImaK1gr3s5d/9S9CNcPNBkY3eIB5HIhnWqF6XMVNjb1ox6M+jc4Dsuchg3ca0F12pjComRd+49JZiC/9X6PB5hzFffnbpju8Ynjz30M3ufJxs3Ov0WfuzAgGNfM8APPG/eClawf6kdkVzoZBK79trq6ubm6Cdi5igmt3VPU/u1oOlMi2jmcHo+wgzGu/xvkP8K4JdYWKosmJmcV/IN++bp6tUtn8etH/HoXBjtj/Atf4emGG1OvCSPZMYEgRYQIZDRjd/YvfaV03v37rk9MozPlb/PjpVuvp09XVs823fxvvZtgR+y9XUXfwMeB88mE2dgHG/ZnTjGCeBDRzeuHW1a3oRczwbrko2My01FYE9+MF6G7Vvcjm5ueLSx+G5jNy6b9eurXQpbNXgY7yF9qiW63WFtZk9W/R4d1yUdzXUN8IzFzrd0934IRRw3/z24rOAEozmZsBDJ3QBJr/KUWhVUKcGJ/ZCr3XGg8AgrqD4Casuzwuz2RyM5nODMPmVhDGr11ry4MJDfHWePgSeO3Oj0O62wrqjk5nMuJMgmYv0lza8GHCDe22+9qkROyort/fZCMXCerOjTPl2bAQtQ0wmXep2UvwLOnpzVHBN+HMRkyJ53STw4xg9DZagPepdcU8a2oidigHYNffpOWf3QCA02YEU8BIk3me1o1oUBANa+IKXhHyKRWmRaMZY0YwhMYzr9OqStNoN1HNAUYx/VZa/nkDAwBxRgEAIQ2AYZ6kpZXdEDgapEVq+obm/T6lXcv1mTNZA0CxMT/zKrk1s15+8yo/YXk9m/fCy5R1eNdn5mbkM4eZs43o/d3NFXOtYY78E9SFbt6IwUD5eD5MyCYWnMu+R2MmzmxvK83PLD+O9o2Pb84/fP90eTqcrPVPLz99/3D+5mNSQY+FKFenl9+hZKQgCLoZlpkVCymg12ReRMP4y6uLaHKy3786HQ9fvscVJP2fTyNWOtt6PlNjRgh1NDHm7G1CnvXzGEz2L/EpavPlRqSBZmzMCNlBzexGenhr8/c4mv4wz+rLX7/G5aiVL9Fw2l2cyc1oNoPiYObs1UkEZvXs95g869uzSB2fnsWkl/ufV2NgHuMGrdKMYmaU6hITawG2YmiQ5WlMwdVx3SjhBPQQ5gUoJrMww436ylImPqCJybPGsdCCm2EaExPQURY3mNmZ5XZ9mqE9jvHb4zQJLFhwdTOE/SWOxdvQIDqzhLEFTANEBg1WMgITy0IXQ0Kq+RyX1Z3LvsMtjbOaM7tSlXDQxM4CtsL2+XN0uu9JazNU8NtfY1jcIcMyMxz/IOho4gPnsdTko8SgK7sVKhi7uyPbwjSTnPy4jzsRA/vZbkx4NpcPJfzJZeL2kvybUMHonhmE2cBeNtshQ39MzyzEhWdzc27C/+LLz7Q5Y9PoQeqLl99od+vHbVXJv0fDzMx0yEB4hoNm4XlMW9IZysWXr5u/ff6Z1jEJhs4TLl7+ZfPs7TclNt8OV6P7mXZmlJkZSZOPt2e4NAEoZ2dgen/7fEH6iXmNNUzI/o4Fz1bffoudymVPcLO5MONehv0M/eb76NLEuYeCmbyzr58vvgeLBF/nAWXVLbh69tvbi2iKeu4APSarzWyWORQlQ/1mxARkW24NWzTPCjj/HKj+r8HURZYWpFldWjCSTIcv4PCXG7P/0aEtoqt5F5NWHuVZado44GcOrkgQe9X/FAtGnesBjcvYGUbMQ1Fl3A7wOpJYaQXrH/oDt3EF85yhgk/jYFAxfHO2HpOKsiPgvSKqaW2F5jlbARi0cwFzEK59KxIqHOAck8nMcF7mi4o/01o4nribecRCNz7eNAWNow8bi2vP2Mm4UqCqWYh1nLGVc/NP+RvDY46ZYe9FMYSU8ZdnC0/S0pEjkGz+wMs/Xa5NyqZ5LO+W6V6Ge1EMjJqizITXnWM58NdX2Y/nH7ytAP3z8zdz+IOsCfnB1jFzyxHTv7o6PT1NyK0kiqrhjoDAzpO4Sr358P3y8jSQWupfXJ1eXn6asNmebmUCxUzrY/pXl9/PP87ls9PC4BP/sKOlNXL2n3+Ov2z/X9Jg3KQsI0/pY/qXHz7SzGj+1ylZ6NPaEuc1Q9n6Pf67X1Ynpv6nzv1dnHuLiuifp5aqRZ84/yJl2GydxSbTXp6tprDMUUuW4afsZNlhH6FbQiaJqahqT1V9n1xEmIXllDVBmOt/jV7oy2pSboDW5T39nenwR7PeXdVJpx/4P5o4+JRSzCyonf3B0fXiUK4HHdpqhSadQD/ZmI7mS0LOxhWwytjJcvhsQ6Lu+7edvz4a7Hd6ST+w/9dRB1lLGP662hlcL25vr+DFfFnc2xuggnSL0uymeJstiPDDF49PK430skFZhCY+EPIabhy87eLKyvb2/NGgE/MYkn8bwtDdPCFlmIreg1ZZebYXovBl77oH5Rz64/OYiNOvHCY6g5f+ls7SwuklQ59nefgs/taLi3vbK9A7wj+u/6nlueO1qyBGQe8dDuZX9lYSOLxLHqF7tkW0zwvPU2nCGx/TWTAhw7D4OO7qs5S7I9He4jwQqd6DPX7695ONLNplOvyRQu05h0fze3sraRierBziRXZoPmDheUrIuRXadH7xt8SCXj6WYTM4V56fXAfod3ugo/1eTyU/Lc4/x9+8nzzqgeAgX9y+EYenGhw2ZlOeROMFmZ4k5wXm8kMWfBiBunLTegDR9iLCgPzxxx9H84sr2xO6VVSuaRiouzTM86QIMttyDYAyXOtM8kv5DcqS4YqYkOndFMYVD+bW4sIQ1aN5nRDYeD7s4vNbN72cNKkZsvBucunwfmHme8SjoXHNwuv4npY9JzSXdrZJk0rkNF6F+RMaKTO84Xrl/5iucj8K8+8ejEeDFjpuOGQ/kf5nmoDCpNK3hDRn/mTXfcDEcNb//+4X5v//PBzU+Lhr6j3jYoHspZdL83JkL+PC//w76l8YqTlMYD4K3WtiTaeBAc8b6cP/OYIZ0TyJm948XR1u9KM4cW7Gi2EYsTm65KP/8jC2tzGSucaXi8N/bgNDgxiw1Ysr++Xe/hjNH+98GKJ7NK9ios5gAi1242M2/3hhnIU8ekdrsDIo9wbPOmAPFgdKBx3CfKxlmAxzBJ5nHi9E7VZ1L/Th3zcCMESpuzTL7yPjO7TFtPU0ApOli0rgX+Ri4IKPDpDFtZhHHTLwYJ6pw9AgXPkIzOLof9fXoNaBQs19h/w0UNSjo+ogXPw/s0EYfBa5+xSXSGgzlhMb37KZn9t1WcJT/kdr0M8gAOyBfwfN7K+suJqBYB3+3YcI+CgNxuuYR/uHnZ66v7dPlF6v0EGYDun8sTgW9v1xkg/BwPSGozF05nXcMlSSZN2dy+AqtXC+/9HBu/nFgdm7Bme+1wGmfYd05vcOiWoCWAc7wyHW2RsMYzCL++Y+vLHdo8+vGxzp8KW9weIi1QzpdcYU8/dWdgyG2JZn1N7dOD+WzdJHsQBLbSzd/+hgbn6+Yw5whNC6g3TmV3Rz3uztwRu9jkoO9wbqYIBzrSgM6bgwoMFrKN6B6xwdAcz+4mHPJMp+qPiL/Nw4DHHasmsGogMnXvIbzxmXxRhfunh0kP37kaoeLbowvU4HKrY4IOqfPf0aVDXYPlKUeahzjxQgsozCoMECmPkVYOgRVEUPx8w+hKb7HaKHetnjGBhSNYSMG6nF+s8Iy8lr6ilZrhhJkINmHh/pAAOGeRvrvg1jZq9H9P/omPswiAZ7f/bI0T45HPR0mLgkwvR6eg+GHjTKItER5now/+cKKVwHyv/XSRwM0Yv0XL2FheOTydsawVO6LHLM48ce5ec2rlVlf3uxo16jNUMDcF0gCvyHFqE3GBTIAGBonxskwpCCegia6eztbZsI89OhosKMIRSUw5CJgyF46IfrPx9PSltmX7hPOePluMeXAUwL3IKignFeoX5m3zzcJz2YNBeQjigABt3scAWMwv5KDIw7ZgZgmLcPTbNzqJICaoZOKntHweJ/z8fDELNquTTLz+fSulq+dcy4njL+4VAIc0xvDF3taHCNZnZwqIK/md83B4ek0yHm0QrCrADMYgwMzPifwZh5BgN/3p2tHC0ODoGCOp75m8DAzWvUDDDMcUra5oBuJcM0zE58fgxhXs9fD8CdLIY9JBhsINn/UyXXiykwnaOjwUqPqAVC1drrYTvEB3nH2UQYYu7QBVxMqR0kzHEO3rsBDCclrSY/ymdbu0mh2PWgsL9yBGMnBQblqIeZMuxTMPlMjneevIs1AJ44Ik12QjgQa6PdH1/RLEziYjLAnDCJt0cXvt1TjhJhBvSRw1SxMKlOvI4rDEzFkmFIVXOPO13YPYngZLNuYpzJsEbykuWjg9ZuJr0Oe9fX4DQX42CAdnvv2fb84o1SAUzm+UYKDCk0MvTxgQtLj8cmoNmRo7QSnqLowmRhFj2hEhjPUy0MIjBTCZNZOP7vtOyvaWu819WCdgBiseMFd65fT1uyMP9tl81MghkyRWOzaWEyvNZNO67TrBos67mcUVfLtt67XYzlGylrfIWqjUek3BAG5UdhMnxOSz2tU7cZz+W88JSD8Yv7+EUm+YmQpuo0GPpw2fuEwYPi2Hox+XxYxdHcyJM5xkAaZpRP3C4mJp65WKg6jTbnPSd3tjDe4gLIsvcIZFaQ6XGq1filBt2QXKv26sXcwdxrd6bPC3asFdOrzk5dY/1nxDPhe94RDKZAn+3hXAhkfhEc0HLgicW8wDNWu1m0q9GlBsWW3K629PrxE9eKSdq4ozQLqmMDh8UIQuhAy5W9FXrPa1xGSc25kvEURTwHJmZwmQfP8lEU9yDwziD8jGqWpedfMpZVa+7Qk759Kr3Gu9GNG1ZmRuG+aRbwUc/FYrNmWUv0CmNHdViDnntmONxTV3sdd5ElNhs+KQOK2vhzfrDfi3kctF6LHm/Cumfk0NMO+Iyl1ZrGDh4TYGuhMxKbtm3jcQe1GgbMsiDQ4xzizmzljWjXVVRAWvzz2XhwApO2RA7sV/ODTi9ysRFM+nmbLMfSo38kScyFj+DA03YlQMCnVU84n4FPXG8GpMH8SrDXQRwWUY071q6P9nvpOz0mwQTk9sduJ8O4RL1DnKx4CQ2i4DRhJPN0gEO3usFhqFPA3F4mwLhE5Q4Ek0fX+Lq3jy8BAWT/MG7h8x8cxiXSe6NXIDd5kv0/LswPSgjmBues/G+BYRktI0p3chDV2PFoDwDDaxWMp9AA/9gxSGyu1oDr+NbvIWBwI6WiVySYf8juKZXU099MMCRgMRZjhCUHhq5u+6csPwyMWQaeSo7t6kV6Sl2ulMvJ/kHsTKjyDCXI4AP7M6xUWi9ZVgnagF8qQ5vgz9rlh4VRGnh8syU4pCtCVUvVcsUxNIZjRTz3lhXxKGmBy2BEIIo5iRXxzFSO0RihUcYjT+D7GckhZlOq0WTIg8IUDLlUIUXRMSnMuptsVTWrrC5xGavbYDjNqAl1w2jYRcdmHNXi+DZRLcmbOWNr6AR0InZJlX9YGKUh5SqkmxvC6KRS0Qtly1JJReY1oluiQ5x177sVRiUWO4SpaHK7QKolm1QsLsPvEJV9WBiidrsmaYg+TPuXX0oyh2dVNyUNai3axMk5ahnmxGWbC8IUBVaqE12z8fHJGWGHVEeHQz4QDIYPCsP7MHa93mbowdu6bHkwjFiSTF37RRSCMDae9Ez0pk26OLycwHnuD2TNKk612pQ5hGEoDEbpDRFgFNJd8mCWWHbZ1Os8HmEbgQHNqJqYM8yCf5rzA40ZI8cKQgZh8HRSgCmXVb2bA5giUQzTg8kgTFPIjMFkZIOokgEDp2EXiCM9pJ9hLadMj87Gs38rFi8KAGMs1Y22ADB8megxMBrHax6MWNJ0MB6MQ91MxT9o+GECTa1Oj+FmuQp0rnK5gTClXEnEMbNs4WbLMIysEiOXaxBVABin4ah4VjKvdVW1XLSCh/PeE4yy4x9IC67cOyW3QTNoTkknOh5KhabZytnjMPiEL73RUGCAyQ4uR5KyBgj8UrvdlkMHS90TDP6GLiqM1a43uo2SO1VV2wjDQ6cagxGaClEUeJeXHTzGquGqA4/VCl6NXbqH32hRUTU5JpbE5AzLcktWzSh2i5ZVNsHV1z2nCdbMIgoekS4bumk6GowOy1pa4hJOE+Zn8yjQOKnKCVMYcOAsTw/IzHAydBuWqzchnGnU8KNmkx4dKUis4KZgYw9CcxtGvKdfz6A4GX7yDJMaBjxClqfTLtZPWE6Y+7C8OPNfaAalqskzO5QWjNs96gVFbVgzwWF5wWrc79GQKFXAuUFnmw5FELTGvXaxoZjVYptLMgXTC8PxMtO0HwSF4qhOQ+PxaNXb52FdEJaTRbaWuhZ3D4KrK01LFAWOvXEiI8yBR8KKkmbYyatw9yjuSY6WVBJlnsvcODlDt2fxkliStQmHTt634K88yvaOJpRK9IBNlgnIqPKjvzlekMRcqcTXikXgmMEpwz8spqkoeGposcYI67+srwNYLodnVmP5M+sAAAAvSURBVFKBF2IOANbXfylxeM6wU8YDW/8BOaJi4rm+jlOpVIAOBV/R87bv/MEY/wOuVM6TmoXh0gAAAABJRU5ErkJggg==;" parent="1" vertex="1">
                    <mxGeometry x="2263.1400000000003" y="60" width="116.86" height="110" as="geometry"/>
                </mxCell>
                <mxCell id="50" value="&lt;font style=&quot;font-size: 17px;&quot;&gt;&quot;Charity Fufills The Law&quot;&lt;/font&gt;" style="rounded=0;whiteSpace=wrap;html=1;" parent="1" vertex="1">
                    <mxGeometry x="1810" y="170" width="1040" height="30" as="geometry"/>
                </mxCell>
                <mxCell id="51" value="&lt;div&gt;&lt;br&gt;&lt;/div&gt;&lt;div&gt;&lt;br&gt;&lt;/div&gt;" style="rounded=0;whiteSpace=wrap;html=1;fillColor=#0054A2;" parent="1" vertex="1">
                    <mxGeometry x="2150" y="468" width="350" height="82" as="geometry"/>
                </mxCell>
                <mxCell id="52" value="&lt;font style=&quot;font-size: 16px; color: rgb(255, 255, 255);&quot;&gt;Home&amp;nbsp;&lt;/font&gt;&lt;font style=&quot;color: rgb(255, 255, 255); font-size: 16px;&quot;&gt; &lt;/font&gt;&lt;font style=&quot;font-size: 16px; color: rgb(255, 51, 51);&quot;&gt;&amp;nbsp;Sport&amp;nbsp;&lt;/font&gt;&lt;font style=&quot;color: rgb(255, 255, 255); font-size: 16px;&quot;&gt; &amp;nbsp;Student Support&lt;/font&gt;" style="rounded=0;whiteSpace=wrap;html=1;fillColor=none;" parent="1" vertex="1">
                    <mxGeometry x="2155" y="468" width="350" height="82" as="geometry"/>
                </mxCell>
                <mxCell id="53" value="&lt;font style=&quot;font-size: 16px; color: rgb(255, 255, 255);&quot;&gt;Staff&amp;nbsp; &amp;nbsp;Learning Areas&amp;nbsp; &amp;nbsp;News&amp;nbsp; &amp;nbsp;Contact Us&amp;nbsp;&amp;nbsp;&lt;/font&gt;" style="rounded=0;whiteSpace=wrap;html=1;fillColor=#0054A2;" parent="1" vertex="1">
                    <mxGeometry x="2500" y="468" width="350" height="82" as="geometry"/>
                </mxCell>
                <mxCell id="54" value="&lt;div&gt;&lt;font style=&quot;color: rgb(255, 255, 255);&quot;&gt;Contact Us&amp;nbsp;&amp;nbsp;&lt;/font&gt;&lt;/div&gt;&lt;div&gt;&lt;span style=&quot;color: rgb(255, 255, 255); background-color: transparent;&quot;&gt;36 Dominion Street&amp;nbsp;&amp;nbsp;&lt;/span&gt;&lt;span style=&quot;color: rgb(255, 255, 255); background-color: transparent;&quot;&gt;Takapuna&amp;nbsp;&amp;nbsp;&lt;/span&gt;&lt;span style=&quot;color: rgb(255, 255, 255); background-color: transparent;&quot;&gt;Auckland, 0622&lt;/span&gt;&lt;/div&gt;&lt;div&gt;&lt;font style=&quot;color: rgb(255, 255, 255);&quot;&gt;Phone: +64 9 489 5417&lt;/font&gt;&lt;/div&gt;&lt;div&gt;&lt;font style=&quot;color: rgb(255, 255, 255);&quot;&gt;admin@rosmini.school.nz&lt;/font&gt;&lt;/div&gt;" style="rounded=0;whiteSpace=wrap;html=1;fillColor=#0054A2;" parent="1" vertex="1">
                    <mxGeometry x="1810" y="468" width="350" height="82" as="geometry"/>
                </mxCell>
                <mxCell id="55" value="&lt;font style=&quot;font-size: 22px;&quot;&gt;Sports&lt;/font&gt;" style="rounded=0;whiteSpace=wrap;html=1;" parent="1" vertex="1">
                    <mxGeometry x="1810" y="200" width="1040" height="30" as="geometry"/>
                </mxCell>
                <mxCell id="57" value="" style="rounded=0;whiteSpace=wrap;html=1;" parent="1" vertex="1">
                    <mxGeometry x="1140" y="1020" width="1040" height="490" as="geometry"/>
                </mxCell>
                <mxCell id="58" value="&lt;h1&gt;&lt;font style=&quot;font-size: 13px;&quot;&gt;&lt;font style=&quot;color: rgb(255, 255, 255);&quot;&gt;&lt;font&gt;Home&lt;/font&gt;&lt;font&gt;&amp;nbsp;&lt;/font&gt;&lt;font&gt; &lt;/font&gt;&lt;font&gt;Sports&amp;nbsp;&lt;/font&gt;&lt;/font&gt;&lt;font&gt;&lt;font style=&quot;color: rgb(255, 51, 51);&quot;&gt; Staff&lt;/font&gt;&lt;font color=&quot;#ffffff&quot;&gt;&amp;nbsp; Student Support&amp;nbsp; Learning Areas&amp;nbsp; News&amp;nbsp; Contact Us&lt;/font&gt;&lt;/font&gt;&lt;/font&gt;&lt;/h1&gt;" style="rounded=0;whiteSpace=wrap;html=1;strokeColor=light-dark(#0054a2, #ededed);fillColor=light-dark(#0054a2, #ededed);" parent="1" vertex="1">
                    <mxGeometry x="1710" y="1020" width="470" height="110" as="geometry"/>
                </mxCell>
                <mxCell id="59" value="&lt;h1&gt;&lt;font style=&quot;font-size: 32px; color: rgb(255, 255, 255);&quot;&gt;&lt;b style=&quot;&quot;&gt;ROSMINI COLLEGE&lt;/b&gt;&lt;/font&gt;&lt;/h1&gt;" style="rounded=0;whiteSpace=wrap;html=1;fillColor=light-dark(#0054a2, #ededed);" parent="1" vertex="1">
                    <mxGeometry x="1140" y="1020" width="470" height="110" as="geometry"/>
                </mxCell>
                <mxCell id="60" value="" style="shape=image;verticalLabelPosition=bottom;labelBackgroundColor=default;verticalAlign=top;aspect=fixed;imageAspect=0;image=data:image/png,iVBORw0KGgoAAAANSUhEUgAAAMwAAADACAMAAAB/Pny7AAABWVBMVEX////uMzQBVKMUQnQJVqMAUqIAUKEATqAAS58AQ5wARp0AV6YASZ7xMjEAOG7x8/jX3us6aa0mVKODfpkAPpr1MSzh6PJhhbrn7vX5+/45YKkzVJ4ALml8nMgAOJjJ0ee1v92Op83A0eSmHifajpU5b7FcebZ8ksNXfbW+P17kMDLsAACrvNgAM5bfOULux8tNb7BcUZKhAADOKi4AH2Kiqr5ojr9sUIi6JCoAJ2UAGWCKmK6dqdD7LyTEx9WVpLyWSXKpRmn96efVpaFGYYcAKZRMUpeDS354TYbYOUn4uralCxr2Zl71VlS8a2js1tNufp7KPVSxQGPyb2z2TkfzfHD1pJv5y8X0jYPVDhPFhX/NlZDDWVSsNDSvREKyV1q6AAjeuLPWVFPvfXzURj7Ob2kqUX7YeYGyfIxGNmRGRm+nna+/j5uBMlqaLU9nRmd5QGUAAFXJtMNtQTPpAAAgAElEQVR4nO2d+1fbyJL4G6M3MpIYW7IEfsjEjxjBOIAhBGMSh0l4JTiPgWxyJ3Nzs8vuzn6/u3f2//9hq1qyJVkPY4Lh7jlbc07G2G2pP13dVdXVbTUhM5SCrlarDkilUnHsoi92Bd8BqZZVXZllFW4npqmAQO1tu7jT1CxZ/OWX9fX1UikHIqJIvtC/4f1SqbS+DuVyLNNsAqNTVQt4GdN8IAiloOtqGRreqDES1B5qLsk8z2WYsGQCMvYJy/KcIEuAV1ovyUzNANWBygoF5d6gTOxFjoMQIiAgARut9xRCv8sCGXKVBAugnGoVoGaLhN3JsXdqGivmAIJjb0+QxJVhUVk5cUFrNrD7zWZoFVAbTY2RRaTI3DFFlIkXJIlnNMN2HPVOgRTQh1FbEGSZZ2fIMI6UyXDQ9TimjTq6GyAdhofGCgKM7QcRFogEpg0DSf1BEtVuti1Z4Ke5O7VTwdqM/hl+PnUfBesg8FbbcAq3JinYbYvlp+pZDMuDN5FYy1cjK6G/yQlDALZUQis+tZ5RQ4xlOLfqb2VD4KfuWqKsNbrdRtmRh03At6u6qqp6Q/LqJFSrUMLQhpdmZUng2Zu1GMtxAlOctrspjlZKVwmLfWmsBCfYXruVreFHLK9V8E29RFXDiEV0H6YzhGGtBrosQbxpVwZNN6tToTAlPrVfczy3BMKGgDkGbtLVaoZK1LZfN7FBe3pdoH+VsF3Nxvroi0xDx6jILAr+xXkurUuw8nqtekOPalZrYjoKy1l1u6Kq5W57KdCgQpeQRo7nRU3XjVHVGMlW0JmXqWrkuqKgYnKjG7C5OtDoxvANTjPqbQsGa0oFGKHUVG+CoxYFIeU6eLslo0xMXYerKV1/qPNtlZjQ/kyGbyi2NCoudQtdBGCxZK5iArJZEf3WEuqgrPLS8DqcVjUVCPospAGrzMX3dpm1J5u2alucMBi5JahbuahpNvaP7qgWsgF/VzRR5niruOM3rNRVmiqWBG3wmq624S6O6F/PhQk0iuhgRbpgQ/h6o2nxcnw1pOYkS+Awka+yXNhtIEvFEnk+V4cGL4w6lIAwpNw1LFmSfOWy0M3aRfhEh4BU7JKGhU0m+Zcch2HEBtZEb8pwSQci82J867JSu5zOIgdHCwP2SZIti5ECl4A+BOObIvPYhM7QpvGae+1C2TGCNl12zLoM2EoDQpNywVrAviwkw2SkBsELVyyekZcqpNIYfSRwmeBglttpZq0aYGE4QZQsw67CQLdHbiPDWyp2Afe1gfUaGi5WKA4dmh4YSqzsKO11rF1ZlGAwsTx+KWCuIpoBGAvaxbRRlfDa75KGJYpBAyrXk3uaqckjFq7E1rtVXaH1U+zRgOWhDxQaLgzXLmB3GA4PdqlR9kwMVMSvbFVvywwi1iVHaQoSXFJfSIZBzWh1E5tJoGC+Yip6xW7LuUDRYmJA4PjdibN0Haax5WKTeih92DosD22mej4DhnMQBk12s1ihPOWRh+cyZahpiZqAtl62eBG/pE2AEVCV3SU2BMNZXZziltv+O1yiamp+c3JMQ0UViBAQmXTwDlsfm6wZC8MLED+BKeuSoF1gGYQR6kjYNYs8m1NRSb6FiINpS22kN/gQTEZo4lgyrNEbTM5OcDcFK9AdObGCMFKGWcfql9gh5DjMaMzwdQPNHgS4XV95GK8gTCaHrsaEt5kc6LbQnADDC2gAy5YYguERxpaCo6aZ0M/UpaANFCiMzPCsCeGHxARg9CFMGz0L431LhtGNY4nli8HK8ZqKf8hd2pFhjlqig9v3mvEwnAX3J8VcDEzQp/PaFDAiL1Ug+lgfvstSGEMeXduPqSACUDDSFsAU+e+yclsFIwuulriNw65X0aLkJmiGkZvQUsryXcIstbum6fziR1I89mU3WGG5LtbCH/8VwGy3MdapMMOgmGk6pm5rUBiGdJkBG4GuznSsoUJd+1peHoNxr06cu4NRymUwvmo3eD28RdXCEEyECEDf8S8tw2BUdJ2Yqs0MCcEAlSs9tQGhSU2tQmHBqOD0Rq2M4mqtW8DYLBCZUpiMQJ1w+c5gwJsjDQkEuXwNR3KXEUUWQn29GLgyX+861bIDMaIUmGjKONGkQSOP02/Wsqx2u94czs5YplguKGbB8e1tzoUBDdGK3plmbIvDyZTif8JyeAulandhzlXeCU08eAggGF6SwtE7y3qxnfs/mC0CljCMZ1imXTcaRRtCoGFxsO0aDimOoz7rLg0Ai7FxI+BOWc/Pm2VbE8ZiQDZ1VhUrYMppYDp0HpzlwOSuQauAEcYdwsgwA8GeW/I/4HjNKNrFHUObLmszgcmfejaNYtcdpmLXvFMYHI7woh2gofNaHuTuUEICY4t1jR0r6XcLw2Xoh2Um3KNmm9ocDjPeagRv/GMwRolG4SbM9h8mockKwWGZa98OhsXYDCcmLF1+ER8oORsSroJz2cDk6oYwLNfUTUWFCJW9cUIVo0wwZxxHB5QvHOe/yflvYlF2qv7KFWGCRcrtwFs3goH5TKWhiblx2xuDgPUTBFlwVzrAJ2qW1ga/WK83XTF2UAz3D3i7Dp9qmgYlLVy74PG7lG4ijZST2xBRtAOj6EbdjLFyEkxbE66Ki0LUP8gcY2ka+r2dYtG2cfG1qlZVOrMbind5/w1cQaxW6SIuLoU2DAP4NIvhBUmW6XJD8n15mMsz08JAsJ+kCVyHlFhKYEP9q9UfXeAyFV1Vy5SsYTTbVgYz60LCKGXYUNBxM5gY4QRJFDmt2Sh2QQOqOoNVR1xpBKxu0WgysgiRAZdJ7B63hcHVU0nWmkW7Ui2rhdmv4btQdqPJSECU3MhTwuCSS05gDHe59H5X6nFlG5CaGUmU4wfwFDAMLiDI2k61qk+3OO+NdKXgiTp8oYRsws2upRTUqmNoUBMu4iJuCoOWI8fsOOpNMMyCoqN5sovFBgziZq1GTW+s1Go1sNcNaj3czRmTb2Aqiuo0uRJML5hbwHC5kmZPWLWmbWbDYK1pDEedBXWabmQ1mseEBp/7LoveFTcyoBddYrSasVMEsMIEk1Ko7jAlaUprBk5EZFKWDEy9TDcFcFIuJ0roLtnxbSZTCN4QXCduq5EZq4YZYT0ZSi1akp+inQwDjbUTlymEQaBXgWJBFoGBOre7FnRj0EISzzSLoKnYvUFmtbk0XDeeBMOzWqxS9Ird5HCbEh/PsOCL+8YysxwVeG+8eKyyWPRp4kLTLscpSd2xOH4yDMe37fjPbRx9YxyB+iwvv3r16smT3d3d4+PXr58/f/7ixYv3j11598578fg9vAufvX59fLy7+wTk1SskjAdDtyCW4pct1CKds6fC8Mkr0zY3DgEEUH+sPFT9PVT5ZKOVzR54kk+SYYFsa2PjBDjfv3DhEMy/9FCEpDWYqpHh02Aygpa8acCme8mGEE+AAJqeAswNa57NZuemkCyKi5efawGYx/VkCJUKQwq2JaTASLWUZUIKs/Bq9zXVAirhNgBpYPR6I6rjJ8vpMLibQEqEESw9mYXCLLza2NiYw9veEUM8lsf0+NVCKgwhznIizHrq8i2F2T2YHcU4U37jySQYYlsJMGaaXkYw90Li4twAxrzlPqd/SJjbyv/BeNU6v804exiYSTXNf+h/nEgTLfAQMPlfJ7X7wSm5nKDRg8so7kPAHFxd5VMrmj/vk366+rIfY3BnCYMrxQuvIreEPkQ+pNLkT+Hbl2tpRdZOST8KczJDGAzNYmCgqhdpNUVacAhpqsl+hCKfxi+dPaERwI/uAJ4CJv8rVvU8RTVUMYScpgAfXEKBiGpcGPkeYbK0qlfxNYWQ5GCNKgbqml87SIiEsm8usMS4au4dJu9VNaqa7MHaQf7j+afLC+/7V5efzlsAF2NCLl3cgzDrzGGW/UrTZl879Wq6trYGoXSgJh8vry6iF+lfXF2GKpzPr619vHI//LQG/P5F8u9mPGaGMNBn5qDVr/qjWmLDfzxYG8H+05eE63xujTSydvDxQ/AiF6eXv77Jrq25PPnHywhz+y3zN4TJf4ppdRTl07BhW5vxNG83RzCX/dgSyoXrQD3NpMfytxSHAZplt67Zp9/iC108Hda0tRpL8/lsdQTzl3gY8uWvs9cMwjBewz/dfBlX5tuqD/N0dfPz+OcmsPglNn+L06/yeXPLhXkPMJnMTJYcHAthPN+3tRpDY75cPRtV1aUJt30fWUaKmXt6dhalwTIjGMygzUQzVQ0TGhvZUU0jNC9/OwtUFcuchXTT/7zp64W2SJQmwJt/gTDMTDRT1VgfJobGHGPBMmdfg6q5GC8ANF/DNEHd5V9gIlCbyZJQtYYwJyNrBe0eovm2OlZVLPN7qKZvt8YLjNGYXwL9MP8cYNhZwXAIk/drGu5E3zbHWUA+BUsoj/5p/PPW6m9Buwgd0b/IAYWpzYKFqHWEeeeHAK2wff55M8qSvQxdImaK1gr3s5d/9S9CNcPNBkY3eIB5HIhnWqF6XMVNjb1ox6M+jc4Dsuchg3ca0F12pjComRd+49JZiC/9X6PB5hzFffnbpju8Ynjz30M3ufJxs3Ov0WfuzAgGNfM8APPG/eClawf6kdkVzoZBK79trq6ubm6Cdi5igmt3VPU/u1oOlMi2jmcHo+wgzGu/xvkP8K4JdYWKosmJmcV/IN++bp6tUtn8etH/HoXBjtj/Atf4emGG1OvCSPZMYEgRYQIZDRjd/YvfaV03v37rk9MozPlb/PjpVuvp09XVs823fxvvZtgR+y9XUXfwMeB88mE2dgHG/ZnTjGCeBDRzeuHW1a3oRczwbrko2My01FYE9+MF6G7Vvcjm5ueLSx+G5jNy6b9eurXQpbNXgY7yF9qiW63WFtZk9W/R4d1yUdzXUN8IzFzrd0934IRRw3/z24rOAEozmZsBDJ3QBJr/KUWhVUKcGJ/ZCr3XGg8AgrqD4Casuzwuz2RyM5nODMPmVhDGr11ry4MJDfHWePgSeO3Oj0O62wrqjk5nMuJMgmYv0lza8GHCDe22+9qkROyort/fZCMXCerOjTPl2bAQtQ0wmXep2UvwLOnpzVHBN+HMRkyJ53STw4xg9DZagPepdcU8a2oidigHYNffpOWf3QCA02YEU8BIk3me1o1oUBANa+IKXhHyKRWmRaMZY0YwhMYzr9OqStNoN1HNAUYx/VZa/nkDAwBxRgEAIQ2AYZ6kpZXdEDgapEVq+obm/T6lXcv1mTNZA0CxMT/zKrk1s15+8yo/YXk9m/fCy5R1eNdn5mbkM4eZs43o/d3NFXOtYY78E9SFbt6IwUD5eD5MyCYWnMu+R2MmzmxvK83PLD+O9o2Pb84/fP90eTqcrPVPLz99/3D+5mNSQY+FKFenl9+hZKQgCLoZlpkVCymg12ReRMP4y6uLaHKy3786HQ9fvscVJP2fTyNWOtt6PlNjRgh1NDHm7G1CnvXzGEz2L/EpavPlRqSBZmzMCNlBzexGenhr8/c4mv4wz+rLX7/G5aiVL9Fw2l2cyc1oNoPiYObs1UkEZvXs95g869uzSB2fnsWkl/ufV2NgHuMGrdKMYmaU6hITawG2YmiQ5WlMwdVx3SjhBPQQ5gUoJrMww436ylImPqCJybPGsdCCm2EaExPQURY3mNmZ5XZ9mqE9jvHb4zQJLFhwdTOE/SWOxdvQIDqzhLEFTANEBg1WMgITy0IXQ0Kq+RyX1Z3LvsMtjbOaM7tSlXDQxM4CtsL2+XN0uu9JazNU8NtfY1jcIcMyMxz/IOho4gPnsdTko8SgK7sVKhi7uyPbwjSTnPy4jzsRA/vZbkx4NpcPJfzJZeL2kvybUMHonhmE2cBeNtshQ39MzyzEhWdzc27C/+LLz7Q5Y9PoQeqLl99od+vHbVXJv0fDzMx0yEB4hoNm4XlMW9IZysWXr5u/ff6Z1jEJhs4TLl7+ZfPs7TclNt8OV6P7mXZmlJkZSZOPt2e4NAEoZ2dgen/7fEH6iXmNNUzI/o4Fz1bffoudymVPcLO5MONehv0M/eb76NLEuYeCmbyzr58vvgeLBF/nAWXVLbh69tvbi2iKeu4APSarzWyWORQlQ/1mxARkW24NWzTPCjj/HKj+r8HURZYWpFldWjCSTIcv4PCXG7P/0aEtoqt5F5NWHuVZado44GcOrkgQe9X/FAtGnesBjcvYGUbMQ1Fl3A7wOpJYaQXrH/oDt3EF85yhgk/jYFAxfHO2HpOKsiPgvSKqaW2F5jlbARi0cwFzEK59KxIqHOAck8nMcF7mi4o/01o4nribecRCNz7eNAWNow8bi2vP2Mm4UqCqWYh1nLGVc/NP+RvDY46ZYe9FMYSU8ZdnC0/S0pEjkGz+wMs/Xa5NyqZ5LO+W6V6Ge1EMjJqizITXnWM58NdX2Y/nH7ytAP3z8zdz+IOsCfnB1jFzyxHTv7o6PT1NyK0kiqrhjoDAzpO4Sr358P3y8jSQWupfXJ1eXn6asNmebmUCxUzrY/pXl9/PP87ls9PC4BP/sKOlNXL2n3+Ov2z/X9Jg3KQsI0/pY/qXHz7SzGj+1ylZ6NPaEuc1Q9n6Pf67X1Ynpv6nzv1dnHuLiuifp5aqRZ84/yJl2GydxSbTXp6tprDMUUuW4afsZNlhH6FbQiaJqahqT1V9n1xEmIXllDVBmOt/jV7oy2pSboDW5T39nenwR7PeXdVJpx/4P5o4+JRSzCyonf3B0fXiUK4HHdpqhSadQD/ZmI7mS0LOxhWwytjJcvhsQ6Lu+7edvz4a7Hd6ST+w/9dRB1lLGP662hlcL25vr+DFfFnc2xuggnSL0uymeJstiPDDF49PK430skFZhCY+EPIabhy87eLKyvb2/NGgE/MYkn8bwtDdPCFlmIreg1ZZebYXovBl77oH5Rz64/OYiNOvHCY6g5f+ls7SwuklQ59nefgs/taLi3vbK9A7wj+u/6nlueO1qyBGQe8dDuZX9lYSOLxLHqF7tkW0zwvPU2nCGx/TWTAhw7D4OO7qs5S7I9He4jwQqd6DPX7695ONLNplOvyRQu05h0fze3sraRierBziRXZoPmDheUrIuRXadH7xt8SCXj6WYTM4V56fXAfod3ugo/1eTyU/Lc4/x9+8nzzqgeAgX9y+EYenGhw2ZlOeROMFmZ4k5wXm8kMWfBiBunLTegDR9iLCgPzxxx9H84sr2xO6VVSuaRiouzTM86QIMttyDYAyXOtM8kv5DcqS4YqYkOndFMYVD+bW4sIQ1aN5nRDYeD7s4vNbN72cNKkZsvBucunwfmHme8SjoXHNwuv4npY9JzSXdrZJk0rkNF6F+RMaKTO84Xrl/5iucj8K8+8ejEeDFjpuOGQ/kf5nmoDCpNK3hDRn/mTXfcDEcNb//+4X5v//PBzU+Lhr6j3jYoHspZdL83JkL+PC//w76l8YqTlMYD4K3WtiTaeBAc8b6cP/OYIZ0TyJm948XR1u9KM4cW7Gi2EYsTm65KP/8jC2tzGSucaXi8N/bgNDgxiw1Ysr++Xe/hjNH+98GKJ7NK9ios5gAi1242M2/3hhnIU8ekdrsDIo9wbPOmAPFgdKBx3CfKxlmAxzBJ5nHi9E7VZ1L/Th3zcCMESpuzTL7yPjO7TFtPU0ApOli0rgX+Ri4IKPDpDFtZhHHTLwYJ6pw9AgXPkIzOLof9fXoNaBQs19h/w0UNSjo+ogXPw/s0EYfBa5+xSXSGgzlhMb37KZn9t1WcJT/kdr0M8gAOyBfwfN7K+suJqBYB3+3YcI+CgNxuuYR/uHnZ66v7dPlF6v0EGYDun8sTgW9v1xkg/BwPSGozF05nXcMlSSZN2dy+AqtXC+/9HBu/nFgdm7Bme+1wGmfYd05vcOiWoCWAc7wyHW2RsMYzCL++Y+vLHdo8+vGxzp8KW9weIi1QzpdcYU8/dWdgyG2JZn1N7dOD+WzdJHsQBLbSzd/+hgbn6+Yw5whNC6g3TmV3Rz3uztwRu9jkoO9wbqYIBzrSgM6bgwoMFrKN6B6xwdAcz+4mHPJMp+qPiL/Nw4DHHasmsGogMnXvIbzxmXxRhfunh0kP37kaoeLbowvU4HKrY4IOqfPf0aVDXYPlKUeahzjxQgsozCoMECmPkVYOgRVEUPx8w+hKb7HaKHetnjGBhSNYSMG6nF+s8Iy8lr6ilZrhhJkINmHh/pAAOGeRvrvg1jZq9H9P/omPswiAZ7f/bI0T45HPR0mLgkwvR6eg+GHjTKItER5now/+cKKVwHyv/XSRwM0Yv0XL2FheOTydsawVO6LHLM48ce5ec2rlVlf3uxo16jNUMDcF0gCvyHFqE3GBTIAGBonxskwpCCegia6eztbZsI89OhosKMIRSUw5CJgyF46IfrPx9PSltmX7hPOePluMeXAUwL3IKignFeoX5m3zzcJz2YNBeQjigABt3scAWMwv5KDIw7ZgZgmLcPTbNzqJICaoZOKntHweJ/z8fDELNquTTLz+fSulq+dcy4njL+4VAIc0xvDF3taHCNZnZwqIK/md83B4ek0yHm0QrCrADMYgwMzPifwZh5BgN/3p2tHC0ODoGCOp75m8DAzWvUDDDMcUra5oBuJcM0zE58fgxhXs9fD8CdLIY9JBhsINn/UyXXiykwnaOjwUqPqAVC1drrYTvEB3nH2UQYYu7QBVxMqR0kzHEO3rsBDCclrSY/ymdbu0mh2PWgsL9yBGMnBQblqIeZMuxTMPlMjneevIs1AJ44Ik12QjgQa6PdH1/RLEziYjLAnDCJt0cXvt1TjhJhBvSRw1SxMKlOvI4rDEzFkmFIVXOPO13YPYngZLNuYpzJsEbykuWjg9ZuJr0Oe9fX4DQX42CAdnvv2fb84o1SAUzm+UYKDCk0MvTxgQtLj8cmoNmRo7QSnqLowmRhFj2hEhjPUy0MIjBTCZNZOP7vtOyvaWu819WCdgBiseMFd65fT1uyMP9tl81MghkyRWOzaWEyvNZNO67TrBos67mcUVfLtt67XYzlGylrfIWqjUek3BAG5UdhMnxOSz2tU7cZz+W88JSD8Yv7+EUm+YmQpuo0GPpw2fuEwYPi2Hox+XxYxdHcyJM5xkAaZpRP3C4mJp65WKg6jTbnPSd3tjDe4gLIsvcIZFaQ6XGq1filBt2QXKv26sXcwdxrd6bPC3asFdOrzk5dY/1nxDPhe94RDKZAn+3hXAhkfhEc0HLgicW8wDNWu1m0q9GlBsWW3K629PrxE9eKSdq4ozQLqmMDh8UIQuhAy5W9FXrPa1xGSc25kvEURTwHJmZwmQfP8lEU9yDwziD8jGqWpedfMpZVa+7Qk759Kr3Gu9GNG1ZmRuG+aRbwUc/FYrNmWUv0CmNHdViDnntmONxTV3sdd5ElNhs+KQOK2vhzfrDfi3kctF6LHm/Cumfk0NMO+Iyl1ZrGDh4TYGuhMxKbtm3jcQe1GgbMsiDQ4xzizmzljWjXVVRAWvzz2XhwApO2RA7sV/ODTi9ysRFM+nmbLMfSo38kScyFj+DA03YlQMCnVU84n4FPXG8GpMH8SrDXQRwWUY071q6P9nvpOz0mwQTk9sduJ8O4RL1DnKx4CQ2i4DRhJPN0gEO3usFhqFPA3F4mwLhE5Q4Ek0fX+Lq3jy8BAWT/MG7h8x8cxiXSe6NXIDd5kv0/LswPSgjmBues/G+BYRktI0p3chDV2PFoDwDDaxWMp9AA/9gxSGyu1oDr+NbvIWBwI6WiVySYf8juKZXU099MMCRgMRZjhCUHhq5u+6csPwyMWQaeSo7t6kV6Sl2ulMvJ/kHsTKjyDCXI4AP7M6xUWi9ZVgnagF8qQ5vgz9rlh4VRGnh8syU4pCtCVUvVcsUxNIZjRTz3lhXxKGmBy2BEIIo5iRXxzFSO0RihUcYjT+D7GckhZlOq0WTIg8IUDLlUIUXRMSnMuptsVTWrrC5xGavbYDjNqAl1w2jYRcdmHNXi+DZRLcmbOWNr6AR0InZJlX9YGKUh5SqkmxvC6KRS0Qtly1JJReY1oluiQ5x177sVRiUWO4SpaHK7QKolm1QsLsPvEJV9WBiidrsmaYg+TPuXX0oyh2dVNyUNai3axMk5ahnmxGWbC8IUBVaqE12z8fHJGWGHVEeHQz4QDIYPCsP7MHa93mbowdu6bHkwjFiSTF37RRSCMDae9Ez0pk26OLycwHnuD2TNKk612pQ5hGEoDEbpDRFgFNJd8mCWWHbZ1Os8HmEbgQHNqJqYM8yCf5rzA40ZI8cKQgZh8HRSgCmXVb2bA5giUQzTg8kgTFPIjMFkZIOokgEDp2EXiCM9pJ9hLadMj87Gs38rFi8KAGMs1Y22ADB8megxMBrHax6MWNJ0MB6MQ91MxT9o+GECTa1Oj+FmuQp0rnK5gTClXEnEMbNs4WbLMIysEiOXaxBVABin4ah4VjKvdVW1XLSCh/PeE4yy4x9IC67cOyW3QTNoTkknOh5KhabZytnjMPiEL73RUGCAyQ4uR5KyBgj8UrvdlkMHS90TDP6GLiqM1a43uo2SO1VV2wjDQ6cagxGaClEUeJeXHTzGquGqA4/VCl6NXbqH32hRUTU5JpbE5AzLcktWzSh2i5ZVNsHV1z2nCdbMIgoekS4bumk6GowOy1pa4hJOE+Zn8yjQOKnKCVMYcOAsTw/IzHAydBuWqzchnGnU8KNmkx4dKUis4KZgYw9CcxtGvKdfz6A4GX7yDJMaBjxClqfTLtZPWE6Y+7C8OPNfaAalqskzO5QWjNs96gVFbVgzwWF5wWrc79GQKFXAuUFnmw5FELTGvXaxoZjVYptLMgXTC8PxMtO0HwSF4qhOQ+PxaNXb52FdEJaTRbaWuhZ3D4KrK01LFAWOvXEiI8yBR8KKkmbYyatw9yjuSY6WVBJlnsvcODlDt2fxkliStQmHTt634K88yvaOJpRK9IBNlgnIqPKjvzlekMRcqcTXikXgmMEpwz8spqkoeGposcYI67+srwNYLodnVmP5M+sAAAAvSURBVFKBF2IOANbXfylxeM6wU8YDW/8BOaJi4rm+jlOpVIAOBV/R87bv/MEY/wOuVM6TmoXh0gAAAABJRU5ErkJggg==;" parent="1" vertex="1">
                    <mxGeometry x="1593.1400000000003" y="1020" width="116.86" height="110" as="geometry"/>
                </mxCell>
                <mxCell id="61" value="&lt;font style=&quot;font-size: 17px;&quot;&gt;&quot;Charity Fufills The Law&quot;&lt;/font&gt;" style="rounded=0;whiteSpace=wrap;html=1;" parent="1" vertex="1">
                    <mxGeometry x="1140" y="1130" width="1040" height="30" as="geometry"/>
                </mxCell>
                <mxCell id="62" value="&lt;div&gt;&lt;br&gt;&lt;/div&gt;&lt;div&gt;&lt;br&gt;&lt;/div&gt;" style="rounded=0;whiteSpace=wrap;html=1;fillColor=#0054A2;" parent="1" vertex="1">
                    <mxGeometry x="1480" y="1428" width="350" height="82" as="geometry"/>
                </mxCell>
                <mxCell id="63" value="&lt;font style=&quot;color: rgb(255, 255, 255);&quot;&gt;&lt;font style=&quot;font-size: 16px;&quot;&gt;Home&amp;nbsp;&lt;/font&gt;&lt;font style=&quot;font-size: 16px;&quot;&gt; &lt;/font&gt;&lt;font style=&quot;font-size: 16px;&quot;&gt;&amp;nbsp;Sport&amp;nbsp;&lt;/font&gt;&lt;font style=&quot;font-size: 16px;&quot;&gt; &amp;nbsp;Student Support&lt;/font&gt;&lt;/font&gt;" style="rounded=0;whiteSpace=wrap;html=1;fillColor=none;" parent="1" vertex="1">
                    <mxGeometry x="1485" y="1428" width="350" height="82" as="geometry"/>
                </mxCell>
                <mxCell id="64" value="&lt;font style=&quot;font-size: 16px; color: rgb(255, 51, 51);&quot;&gt;Staff&amp;nbsp;&lt;/font&gt;&lt;font style=&quot;font-size: 16px; color: rgb(255, 255, 255);&quot;&gt; &amp;nbsp;Learning Areas&amp;nbsp; &amp;nbsp;News&amp;nbsp; &amp;nbsp;Contact Us&amp;nbsp;&amp;nbsp;&lt;/font&gt;" style="rounded=0;whiteSpace=wrap;html=1;fillColor=#0054A2;" parent="1" vertex="1">
                    <mxGeometry x="1830" y="1428" width="350" height="82" as="geometry"/>
                </mxCell>
                <mxCell id="65" value="&lt;div&gt;&lt;font style=&quot;color: rgb(255, 255, 255);&quot;&gt;Contact Us&amp;nbsp;&amp;nbsp;&lt;/font&gt;&lt;/div&gt;&lt;div&gt;&lt;span style=&quot;color: rgb(255, 255, 255); background-color: transparent;&quot;&gt;36 Dominion Street&amp;nbsp;&amp;nbsp;&lt;/span&gt;&lt;span style=&quot;color: rgb(255, 255, 255); background-color: transparent;&quot;&gt;Takapuna&amp;nbsp;&amp;nbsp;&lt;/span&gt;&lt;span style=&quot;color: rgb(255, 255, 255); background-color: transparent;&quot;&gt;Auckland, 0622&lt;/span&gt;&lt;/div&gt;&lt;div&gt;&lt;font style=&quot;color: rgb(255, 255, 255);&quot;&gt;Phone: +64 9 489 5417&lt;/font&gt;&lt;/div&gt;&lt;div&gt;&lt;font style=&quot;color: rgb(255, 255, 255);&quot;&gt;admin@rosmini.school.nz&lt;/font&gt;&lt;/div&gt;" style="rounded=0;whiteSpace=wrap;html=1;fillColor=#0054A2;" parent="1" vertex="1">
                    <mxGeometry x="1140" y="1428" width="350" height="82" as="geometry"/>
                </mxCell>
                <mxCell id="66" value="&lt;font style=&quot;font-size: 22px;&quot;&gt;Staff&lt;/font&gt;" style="rounded=0;whiteSpace=wrap;html=1;" parent="1" vertex="1">
                    <mxGeometry x="1140" y="1160" width="1040" height="30" as="geometry"/>
                </mxCell>
                <mxCell id="68" value="&lt;div&gt;&lt;font style=&quot;font-size: 6px;&quot;&gt;Rosmini College is a Catholic Boys’ School founded by the Rosminian order to provide a Catholic education to young men on Auckland’s North Shore. We aim to shape them into well-rounded young men ready to leave school who are able to make a positive contribution to society and are empowered to serve others by living out the founder’s maxims.&lt;/font&gt;&lt;/div&gt;&lt;div&gt;&lt;font style=&quot;font-size: 6px;&quot;&gt;&lt;br&gt;&lt;/font&gt;&lt;/div&gt;&lt;div&gt;&lt;font style=&quot;font-size: 6px;&quot;&gt;​&lt;/font&gt;&lt;/div&gt;&lt;div&gt;&lt;font style=&quot;font-size: 6px;&quot;&gt;&lt;br&gt;&lt;/font&gt;&lt;/div&gt;&lt;div&gt;&lt;font style=&quot;font-size: 6px;&quot;&gt;Our Mission: Rosmini College supports and develops well-rounded young men while keeping true to the maxims of Antonio Rosmini.&amp;nbsp; A holistic education in the Rosminian tradition that fosters a genuine encounter with Christ.&lt;/font&gt;&lt;/div&gt;&lt;div&gt;&lt;font style=&quot;font-size: 6px;&quot;&gt;&lt;br&gt;&lt;/font&gt;&lt;/div&gt;&lt;div&gt;&lt;font style=&quot;font-size: 6px;&quot;&gt;Our Vision: Christ-centred young men who have the values, attitudes, knowledge and skills to fulfil their life and be empowered to serve others.&lt;/font&gt;&lt;/div&gt;&lt;div&gt;&lt;font style=&quot;font-size: 6px;&quot;&gt;&lt;br&gt;&lt;/font&gt;&lt;/div&gt;&lt;div&gt;&lt;font style=&quot;font-size: 6px;&quot;&gt;Our Values: Dignity. Integrity. Fairness. Charity. Justice&lt;/font&gt;&lt;/div&gt;&lt;div&gt;&lt;font style=&quot;font-size: 6px;&quot;&gt;&lt;br&gt;&lt;/font&gt;&lt;/div&gt;&lt;div&gt;&lt;font style=&quot;font-size: 6px;&quot;&gt;Our Motto: Charity fulfils the law.&lt;/font&gt;&lt;/div&gt;&lt;div&gt;&lt;br&gt;&lt;/div&gt;" style="rounded=0;whiteSpace=wrap;html=1;" parent="1" vertex="1">
                    <mxGeometry x="60" y="350" width="1040" height="120" as="geometry"/>
                </mxCell>
                <mxCell id="77" value="" style="rounded=0;whiteSpace=wrap;html=1;" vertex="1" parent="1">
                    <mxGeometry x="1810" y="225" width="190" height="245" as="geometry"/>
                </mxCell>
                <mxCell id="78" value="" style="rounded=0;whiteSpace=wrap;html=1;" vertex="1" parent="1">
                    <mxGeometry x="2660" y="230" width="190" height="245" as="geometry"/>
                </mxCell>
                <mxCell id="79" value="" style="rounded=0;whiteSpace=wrap;html=1;" vertex="1" parent="1">
                    <mxGeometry x="2040" y="240" width="120" height="60" as="geometry"/>
                </mxCell>
                <mxCell id="80" value="" style="rounded=0;whiteSpace=wrap;html=1;" vertex="1" parent="1">
                    <mxGeometry x="2040" y="400" width="120" height="60" as="geometry"/>
                </mxCell>
                <mxCell id="81" value="" style="rounded=0;whiteSpace=wrap;html=1;" vertex="1" parent="1">
                    <mxGeometry x="2040" y="317.5" width="120" height="60" as="geometry"/>
                </mxCell>
                <mxCell id="82" value="" style="rounded=0;whiteSpace=wrap;html=1;" vertex="1" parent="1">
                    <mxGeometry x="2470" y="340" width="120" height="60" as="geometry"/>
                </mxCell>
                <mxCell id="83" value="" style="rounded=0;whiteSpace=wrap;html=1;" vertex="1" parent="1">
                    <mxGeometry x="2250" y="330" width="120" height="60" as="geometry"/>
                </mxCell>
                <mxCell id="84" value="" style="rounded=0;whiteSpace=wrap;html=1;" vertex="1" parent="1">
                    <mxGeometry x="2250" y="255" width="120" height="60" as="geometry"/>
                </mxCell>
                <mxCell id="85" value="" style="rounded=0;whiteSpace=wrap;html=1;" vertex="1" parent="1">
                    <mxGeometry x="2470" y="255" width="120" height="60" as="geometry"/>
                </mxCell>
                <mxCell id="88" value="" style="rounded=0;whiteSpace=wrap;html=1;" vertex="1" parent="1">
                    <mxGeometry x="2250" y="410" width="120" height="60" as="geometry"/>
                </mxCell>
                <mxCell id="89" value="" style="rounded=0;whiteSpace=wrap;html=1;" vertex="1" parent="1">
                    <mxGeometry x="2470" y="408" width="120" height="60" as="geometry"/>
                </mxCell>
                <mxCell id="90" value="" style="rounded=0;whiteSpace=wrap;html=1;" vertex="1" parent="1">
                    <mxGeometry x="1180" y="1220" width="120" height="60" as="geometry"/>
                </mxCell>
                <mxCell id="92" value="" style="rounded=0;whiteSpace=wrap;html=1;" vertex="1" parent="1">
                    <mxGeometry x="1350" y="1300" width="120" height="60" as="geometry"/>
                </mxCell>
                <mxCell id="93" value="" style="rounded=0;whiteSpace=wrap;html=1;" vertex="1" parent="1">
                    <mxGeometry x="1530" y="1300" width="120" height="60" as="geometry"/>
                </mxCell>
                <mxCell id="94" value="" style="rounded=0;whiteSpace=wrap;html=1;" vertex="1" parent="1">
                    <mxGeometry x="1710" y="1300" width="120" height="60" as="geometry"/>
                </mxCell>
                <mxCell id="95" value="" style="rounded=0;whiteSpace=wrap;html=1;" vertex="1" parent="1">
                    <mxGeometry x="1880" y="1300" width="120" height="60" as="geometry"/>
                </mxCell>
                <mxCell id="96" value="" style="rounded=0;whiteSpace=wrap;html=1;" vertex="1" parent="1">
                    <mxGeometry x="2035" y="1220" width="120" height="60" as="geometry"/>
                </mxCell>
            </root>
        </mxGraphModel>
    </diagram>
</mxfile>